<mxfile host="app.diagrams.net" modified="2020-12-03T01:51:33.152Z" agent="5.0 (Macintosh)" etag="mx9hWxRcE6tPhCAdUmsK" version="13.10.6" type="github">
  <diagram id="HLZmMXMrAOOKduDlQ1tQ" name="Page-1">
    <mxGraphModel dx="1298" dy="843" grid="1" gridSize="10" guides="1" tooltips="1" connect="1" arrows="1" fold="1" page="1" pageScale="1" pageWidth="827" pageHeight="1169" math="0" shadow="0">
      <root>
        <mxCell id="0" />
        <mxCell id="1" parent="0" />
        <mxCell id="VkvpeGfg5LVm-qyrDoRU-2" value="" style="shape=image;verticalLabelPosition=bottom;labelBackgroundColor=#ffffff;verticalAlign=top;aspect=fixed;imageAspect=0;image=data:image/png,iVBORw0KGgoAAAANSUhEUgAAAggAAAH1CAYAAACTGAY5AAAgAElEQVR4nOzdd1tU1/428OdtrGHoTTT2FsWI/RhNjBpNQmxRjPHEox5j9KDRE08SB5COICggYgelKcZuFKKCiKICilJEioU6IGXavp8/+O2V2TODogGG8v1c17p0ZvbsWVOYfc/aq/w/EEK6lU6nQ2JiIry9vaFQKKi8Qzl+/DgEQTD3W0hIv/D/zF0BQvoLQRAQHh4OhUKBwMBAhIaGIiwsjMo7lMDAQCgUCkRERJj77SSkz6OAQEg3CQ8Ph7+/v7mr0Sfs2rULgYGB5q4GIX0aBQRCuoFOp4NCoTB3NfoMQRCgUCiQm5tr7qoQ0mdRQCCkGyQmJtIv3k526dIlhISEmLsahPRZFBAI6Qbe3t4IDQ01dzX6lJqaGmqVIaQLUUAgpBsoFAqEhYWZuxp9Sl1dHQUEQroQBQRCugEFhM5HAYGQrkUBgZBuQAGh81FAIKRrUUAgpBtQQOh8FBAI6VoUEAjpBhQQOh8FBEK6FgUEQroBBYTORwGBkK5FAYGQbkABofNRQCCka1FAIKQbUEDofBQQCOlaFBAI6QYUEDofBQRCuhYFBEK6AQWEzkcBgZCuRQGBkG7wvgEhNTUVS5cuhUajAWMMOp0OAMAYM9rWxsYGN2/eBAA0Njaa3Ob27dvYuXNnhx7bzc2Nr3WQkZFhVABAo9Fg7ty5AICzZ89Co9FAo9HAwcEBAPDHH3+gqKjIaN/z58/H7t27O1SP9lBAIKRrUUAgpBu8T0DQ6XSwsLBAU1MT3NzcwBhDSEgIXrx4ASsrK1RVVaG2tpZvzxjDli1beGGMYcOGDfyyIAgQBAHOzs7w8PCAu7s7pk+fjunTp8PCwgLTpk3D9OnTUV1djZaWFmi1WjDG8Pr1axw5cgQHDhzgRT98LFy4EA4ODrh+/TqsrKx4QNDpdGCMQaPRSOo4ZMgQSRk4cCD++c9/vvNrSgGBkK5FAYGQbvA+AWHUqFGIjIwEADg7O4MxhlGjRiErKwsuLi4YPHgwVq9eDQD4+eefMW3aNNy/f7/dIggC3/f169cljzVo0CCoVCp++ZdffsGVK1cAtB3UtVotvvzyS4SHh/PrAEClUkGj0SA6OhpAW8uAGBCysrIQExMjeRzGGGbMmCEpQ4cOpYBASA9EAYGQbvA+ASEmJgYxMTFYtGgR6urqeAkJCcHGjRvx9ddfo76+Hi0tLWCMwc/PDwBgZWVlVBobGwG0nYawsbExeqz2AkJdXR2WLVuGkJAQMMZw584dAH8FhODgYMhkMjQ1NUGpVEImk/HHsLGxMTrNwRhDdXW1pKSlpVFAIKQHooBASDd431MMcrkc9fX1YIxJyvjx4zFq1CgAwMyZM7Ft2zYeEH766Sej0trayvdrqm9CewEhIiICa9euRVBQEIKCgvh99feRmJiIpUuXQqlU4qOPPoJWq+XFVED45z//KSnu7u4UEAjpgSggENIN3icgDB8+HIwxNDU1YcuWLdi8eTN27tyJH374AZaWlvzgW1dXh9OnT/OAcPfuXaOi1Wr5ft81IFy8eNHovob78PX1hVKphK2tLebNm8eLqYAwevRoSRk0aBAFBEJ6IAoIhHSD9wkI2dnZGD9+PJqammBlZYX79+9j0KBBAIA9e/bgiy++4NuKAUH81W5YHj9+zLcVD9r6fRLaCwjnz5/HqFGjMH/+fDDGsHz5csk+AKCgoAAjRoyAUqnEyJEjce3aNV70t8vJyYFarUZAQACuXLmCdevW8Xr8/PPP7/TaABQQCOlqFBAI6QbvO8xRDAjiEEdLS0u4uLjggw8+gK2tLd9OPyA4OTlJ9vHNN98YBYT58+dLfrW/qZOijY0NXr9+zQ/2n3/+ueTA7+rqisLCQiiVSgwfPhzJycm86G/n7OzM9yMIAoYNG4bo6GgsWLAAH3zwAW7cuPFOrw0FBEK6FgUEQrrB3wkIFy9ehEwmQ3NzM+RyOf773/9i0qRJ8PDwwH/+8x8Axi0I9vb2vMjlcqOAsHbtWsnj2NnZGQWEvXv3wsLCAikpKfx+crkcx48f5wf+iooKWFpaAgCUSiUmTpwo2a+43f379yGTySTXCYKArKws2Nvbm+yv8DYUEAjpWhQQCOkG7xsQpk6divz8fMnBe+PGjfz/wcHBANomKQoODoZWq8Xw4cMl+9i8eTMKCwv5ZbVazf+flpaGDz74AP/+978l9/Hx8cG1a9dM1snZ2Rne3t4AgFevXvEhkw0NDZg1axYAoKioCM7OzvDx8eH3E5/DkSNH4OHhAQ8PD6xatQovXrzo4KshRQGBkK5FAYGQbkBTLXc+CgiEdC0KCIR0AwoInY8CAiFdiwICId2AAkLno4BASNeigEBIN6CA0PkoIBDStSggENINKCB0PgoIhHQtCgiEdAMKCJ2PAgIhXYsCAiHdgAJC56OAQEjXooBASDeggND5KCAQ0rUoIBDSDSggdD4KCIR0LQoIhHQDCgidjwICIV2LAgIh3SA4OBi7d+82dzX6lLKyMslUzoSQzkUBgZBukJ2dDV9fX3NXo0+JiIhAZGSkuatBSJ9FAYGQbqJQKN57YSIi1dDQAIVCgebmZnNXhZA+iwICId0kNzcXCoUC9+/fN3dVerXMzEwoFApkZmaauyqE9GkUEAjpRs+ePYNCoaDyN0tVVZW530pC+jwKCIQQidGjR5u7CoSQHoACAiFEggICIQSggEAIMUABgRACUEAghBiggEAIASggEEIMUEAghAAUEAghBiggEEIACgiEEAMUEAghAAUEQogBCgiEEIACAiHEAAUEQghAAYEQYoACAiEEoIBACDFAAYEQAlBAIIQYoIBACAEoIBBCDFBAIIQAFBAIIQYoIBBCAAoIhBADFBAIIQAFBEKIAQoIhBCAAgIhxAAFBEIIQAGBEGKAAgIhBKCAQAgxQAGBEAJQQCCEGKCAQAgBKCAQQgxQQCCEABQQCCEGKCAQQgAKCIQQAxQQCCEABQRCiAEKCIQQgAICIcQABQRCCEABgRBigAICIQSggEAIMUABgRACUEAghBiggEAIASggEEIMUEAghAAUEAghBiggEEIACgiEEAMUEAghAAUEQogBCgiEEIACAiHEAAUEQghAAYEQYoACAiEEoIBACDFAAYEQAlBAIIQYoIBACAEoIBBCDFBAIIQAFBAIIQYoIBBCAAoIhJD/s379eqxfvx729vZYv349goODzV0lQogZUUAghAAAJkyYAMYYL3V1deauEiHEjCggEEIAAIIg8HAwbtw4c1eHEGJmFBAIIdy4cePAGINWqzV3VQghZkYBgRACnU6HkpISKBQK2NvbIzIyEq9fvzZ3tQghZkQBgZB+ShAEVFZWIigoCAqFAgqFAocPH8aTJ08QFhbGrzt37hyamprMXV1CSDejgEBIP1NVVYVjx47xAHDo0CFUV1eb3DYzMxMBAQF821u3btHpB0L6CQoIhPQDLS0tOHPmDD/Qh4eH48mTJx2+v1arxZUrV/j9AwMDce/evS6sMSHE3CggENJHCYKAy5cvY9euXVAoFPDy8sL9+/chCMLf2q9SqcSpU6d4WIiMjMTTp087qdaEkJ6CAgIhfczdu3cl/Qpu3LgBlUrVJY9VVVWF6Oho/lgxMTFoaWnpkscihHQvCgiE9AFVVVWSUJCQkNCtB2pBEPDq1St4eXnx1oq4uLhue3xCSOejgEBIL6XVarF7924eCvz8/P726YPOkp+fz+ulUCiQnp5u7ioRQt4RBQRCepGWlhYkJSXxA29QUBCeP39u7mq90e+//w4fHx9e59LSUuh0OnNXixDyFhQQCOnhVCoVMjMzJaEgKyvL3NV6Z1qtFkePHuXPIzg4GJWVleauFulhBEFARkaGpAWKSteW06dPmwztFBAI6YEEQUBubi58fX35Of2LFy+au1qdprq6GgcPHuRfUMePH0dVVZW5q0XMTBAE+Pn5wdfXF3fv3u2yzrWkjSAIKCoqQnBwMLy8vNDa2iq5nQICIT1IUVER9u3bJ0n2zc3N5q5Wl3r8+DHCw8P5cz5z5gyNhOinDh48iKCgIHNXo19KSEiAl5eX5DoKCISYWU1NDQ4fPswPkIcPH8bLly/NXa1uJwgC7t+/z0dC+Pj44MqVKz2m4yXpegqFgloNzMjLywt5eXn8MgUEQsxAo9EgOTmZHwz9/PxosiE9ra2tuHbtGg9Nu3fvRm5urrmrRbqYQqEwdxX6tcTERERERPDLFBAI6UbXrl2Dn58fP/Dl5+fT2gZv0djYiLi4OP6a7dmzB7W1teauFukCFBDM68KFC5L3gAICIV2suLiYT3esUChw6dIlaDQac1erV2pubuYdNxUKBSIiImjIZB9CAcG8KCAQ0sUEQYBSqZS0FERGRpq7Wn3OixcvJGHh9OnTFLx6OQoI5kUBgZAuolQqJUP3wsPD0djYaO5q9QsZGRnw9/fnr31OTg6FhV6IAoJ5UUAgpBM1NTXh4sWLkvPjjx8/Nne1+i1BEJCamsrfD19fXzx58oRGQvQSFBDMiwICIX+TVqtFRkYGvL29+UEoIyPD3NUiBl6/fo2EhAQeFqKiolBaWmruapE3oIBgXhQQCHlPOTk5CA4O5gecP/74A2q12tzVIh1QUVGB2NhY/t7FxcWhvr7e3NUiBiggmBcFBELeQVlZGSIjI/mBJSUlBUql0tzVIn9DSUkJ70Dq5eWFlJSUfj3UNCAgoN3bqqurjabf1R8n39koIJgXBQRC3qKlpQX79+/vMePu+9Iwvp50INbpdMjLy+Pvs5+fH9LS0sxdrffGGHtjsbS0NHk/a2vrdveZkJCAkJAQAMD169eRnp4OxhjS09ORnp7e6R1BKSB0rnfte0MBgRATBEHAyZMn+cyGXl5eqKqqgiAIUKlU/A/t0aNH+Pjjj/n95syZY3QAZ4yhoqICQFsLBGPM6PHs7e3x3//+F/fv3wdjDM7OzlAqlRg3bpzRtowx/vhFRUVwdXU12sbBwQEAYGVlBZ1Ohy1btmD69Omwt7eHTCaDXC43+bxN1U1UVlaGyZMnt3u76LfffsOWLVswY8YMWFtb48SJE6isrDS574EDB/K1JQRBMLnNuXPncPr0aVhbWyM1NZUXxhhOnz6N1NRUAMCgQYMkRavVQhAEODk5AUC7p3+ampqMHlej0fAvR4VCgV27dqG4uPitz70ns7S0RHV1tdH1bwsS4muzb98+zJo1CxMmTEBqaioOHjyIgwcPgjHG/9/Z0yKbOyCUlpZi9uzZANr+lgyL6PXr10afP/2iTxAEHD9+HHZ2dmCMoaGhweTn/syZMxg9ejQAwNbWVlJSUlL4dseOHcOYMWMwbNgwMMZw/fp1HD9+3OTf+LBhw5CcnMwvM8beeFqUAgIh/0er1UqWUfbx8UFOTo7RdrW1tfyPTz8gZGdnQyaTAfjroNORL94jR45g4sSJ2LdvH+7evctvKy0thYuLCxYtWoQrV64AACIjIzF//vy37tPW1hZA25eaRqPBqFGjTP56aGhokBTxC0u/iG7cuNHuYzo7OwNom+VQrMP48eNhbW2NI0eOoLy8HDKZDIsWLcJ//vMfAH8FgjcVcT2Ge/fuwcbGBvfu3ePFwcEBOTk5uH//Pq+jo6Mjb5WYPn066uvreUDQ/xJmjGHkyJEYOXIkhg0bhuHDh/PLI0eOxOLFiyWvU3R0tKRloaGhoVeNhPjuu+/eGP70tdeCUFFRgaCgIGzduhUlJSX47bff8Ntvv4Exxv9/5syZTqy16YDw4sWLDj+XjmhqaoKjo6PR9S0tLXj8+DFmzpyJ1tZWMMagVCp5eZ86uLi4wNHREXZ2drh9+za/3tS+nJ2d8fz5c/6DQwwLn3zyCZ48eQKg7TuLMQatVssDx7Vr13Do0CEwxrBo0SIsWrRI8jgDBgx443eHPgoIpF/T6XQoLi7mIxB8fHw69CU3c+ZMXLhwQRIQBgwYIDn18OrVKzx8+JCX169f89vE4Y9NTU2wtbXFq1evEBERIfljXbVqFR4+fMhTviAIkMlkeP78OYC2GRkNi8jW1hYPHz7kvxpHjBiBqqoqXsT5GD799FNe9B9b/3pRXFwc/Pz83vi6yGQyFBUVoaqqSrK/W7du4fPPP8fGjRvx4MEDAMC0adOwadOmdp+L/ukHnU4HmUyGESNG8CKTySStNYYtEG8LCLW1tSgtLcWECRNw+fJllJaW8tLeqY/GxkbJSpOHDh3q8X1Q9u7dC3t7ezDGsGvXLpO/Gt8WOEXiKYaqqipkZWXxcvbsWdy8ebPTO3qaCgiPHj0CYww1NTUA2t73yspKPH/+XBLa1Go1SkpK8OzZM36dIAh49uwZSktL+WenvLwcDg4OfH+itWvXYvTo0bCxscGSJUvAGMPJkyd5+TshxcPD440B4dy5c5gyZQrKy8tha2uL1tZWTJw40Wjb4cOH4+HDh7yFTix79+7FRx99BF9fX1y/fh0A8OWXX2LUqFEA2lpGDP/eTJ26pIBA+h1BEFBeXi75oo+Li+vwCIS3/eoVm1l9fHzw+eef46effsLUqVORnp4OV1dXVFdX49dff5UEERsbGzx48AA5OTm8MMZQXFzMvxCWLl0Kxhhf2XHNmjVGRWRra4vvvvsO3333HeLj42FtbQ3GGGbNmoUhQ4bg559/ljynly9fYtKkSWCMYdy4cSb7WGzduhU7duzA+fPnjYq+TZs2ISQkRPJcNmzYgAULFuCrr75CS0sL7ty5A8YYtm/f3u5zaWpq4vvU6XRgjMHBwYEXxpjkS+3p06ewsbHBqlWrcODAAUyfPh0ff/wxGGP45JNPjALCxYsXsWbNGjDGsGbNGqxevZo/tn6Ya09BQQH27NkjmTJbv87mJggC1q5dCwcHB0l4OnjwIGQymdFzFH+JilauXIn169fzyy0tLfjll1/AGMPSpUsRGhrKy+TJk7FlyxZcvHixU5+DYUAQBAGDBw/mLUDiL+hhw4ZhyJAhsLCwgFqt5q0MEydOhJOTE0aOHAmg7e9s9OjRGDduHP/8iGFT3Eaf/imGN4Wnt30n2NraQhAE5OXlIS8vDwsXLsSJEyf4ZcYY/7/4Q0C8b0NDA+7cuQNra2v+fBljqKurAwAEBQXhq6++kvy9RURE4KOPPsL69etRXFyM2tpaMMZ4K8S6deuM/t5MLalOAYH0G1VVVYiPj5f8+nvx4kWnPsagQYMkAeH7779HYGAgZs+e3W5A8Pb2BmMMGRkZ2L59Oy+DBg3CsmXL4OLiAgAYMWIEZsyYwQPCm76wrK2t+SkCtVqNsWPH8tvnzZuHkpISvq0gCLCyskJNTQ0YY2hqaoJMJjNqQv/zzz+xb98+o6L/uKWlpfzLS/+5WFhYwMHBgZ/68PT0RGJiIg8Ipp6L+AWYmJiIhIQEWFlZITExkRdbW1skJCQgMTERAHjfitzcXGzYsAFqtRoqlQpOTk5QqVSS8+P6oSsqKgpAWz+Q95WRkcHX1/D29sbNmzfN2gGzqakJFhYWmDdvHr9O/306deoULCwsJPcJDQ3FmDFjIAgC9u/fb/R6zJgxAzNnzuSdFI8dO4aLFy/i4sWLmDFjBiIiIjp9hc23nWJYvXo1PvzwQ36bq6srtm/fDm9vb4SFhRltzxjjp6S2bdsGlUrV7ikGoK2Pj0wmg7u7OzZv3mxUfv/9d76t/t+L+HgtLS38ep1OBw8PD3h4eGDgwIFYuHAhv8wY4/8Xt//xxx+xY8cOAMDixYslLWbi/sXTgq9fv5b8vTHW1gl1xowZqKurw8GDB9HQ0MADgng6Qr+YmuWVAgLp01pbWyUz6YWGhnbKzIb6v570i52dnSQgBAcH48aNG/Dw8DAZEHQ6HVxcXCRfYIwx+Pj4QK1WgzGG5cuX88fVDwiXL182KiILCwtMmTKFnzedOnUqlixZgosXLxr98nZ1dcWvv/7KHx9o65Bm2LmqPfoHHltbW4wYMQJ1dXX8ednY2CArKwuurq6SnvNXrlzhAcHUcxGb7uPi4hASEgIrKyvExcXhq6++QlxcHGxtbXnrjyAIGDZsGKytrVFeXo4NGzbweomnGMaOHWtU546ei+0ojUaDq1ev8s9bSEgI7t279977+zv0Pw+AcTO2fhO3KCQkBIyxdvsh6I9i+Pjjj/HDDz8AAL799ltkZ2d3Qq2l3hYQ5HI5du/ezW8LDAzEhAkToFQq8eGHH4IxBisrK759bGws/3U+efJkaLXadgOCeP+PPvoIKpUK69evR0FBARhjKCgoQEFBASorK/n2+gdZ8fHmz5+P8PBwo31/8MEHktMxhu+NeArD3d2d1/f58+cYM2YMMjMz+ekGNzc3DBo0CK9fv+afXblcjsLCQt46pk8MCFeuXDH6exM7UuujgED6HEEQcOXKFb5wj7e3N3Jzczu1U9m5c+dMFkdHR0lAGDt2LKZNm4ZBgwa124Kg3/zLGEN9fT1++uknPH36FDKZjJ+zB/4KCHV1dRg/fjyCg4N5MWzyFP99/Pgxli5dyjtW/fTTT3w7FxcXzJ8/HwsWLMCCBQvAGOP/X7NmDe+p/aYDqf7j6nQ6/OMf/0BdXR0cHByg0+lgbW2N3NxcpKSkYMWKFXxb/YAgl8slz2XGjBm4c+cOAMDd3R0WFhb48ssvsWjRIjDW1vlqwYIFsLGxkfSTeNeAoO/vtCCYUl9fj+TkZMkCXaa+hLvLm4KPTqfD+vXrwRjjn6UJEyagoKBAst3Jkyd5QNDpdLyzrrkCwty5cyWjiObNm4d169Zh3Lhx2LdvHwDwz319fT3vIKtWqzFgwAAoFIp2A4JGozE6xSD+O2rUKIwaNYo3y9fW1mLAgAH8vqb+FkXi6TJ9hpf9/f1x8OBBFBQUSL4fxNMr4ilAnU6HKVOm8IAg7qukpARXr16VtK4AfwUE8X0WyzfffIOjR48avQYUEEifkZubi6CgIP6FnJ6e3unDrt7G8BRDSkoKGhsbsXnzZqSnp2PixIkm+yAw1tbfwN3dnZ8vDA8PB2MMI0aM4NvpB4Svv/5a8tjtBYRdu3bhyJEjvGfz9OnT+XbBwcEQBAFlZWV8CKb4f0EQcPjw4bc+Z8Px9GJA0K/DyJEj+S8hMajpBwTDX6zr16/nAUH84qqsrOSdscT/A0BmZia/n0wmw/79+98YEG7fvo0ZM2a88ZzxwIED3/q830VtbS3CwsL4Z3P//v0mz/l2pfYCgo2NDRhrG6qof1rk8ePH/Fz9xYsXsXbtWshkMkloqKyshK2treSUUGcyFRBUKhUYY5gyZQr///Tp03mLWVNTEyZPngxnZ2esXr0acrkcjDFcvXqV32/dunWQyWQoLy9HS0sLGGOSoCESA0JRURH/W2Ksra+GOIwWaPsbED+vgPS1XrJkCbZu3covz5o1i3/uTW0vio2NxbBhw/Dll19i5cqV0Gq1vLOp/mOZCggDBgyAo6MjGGOSkUj6AcHwsSggkD6ntrYWAQEB/Iv3yJEjXT7d8ZsOLIxJOymeO3cOO3bsgJWVFW7dugUAmD17NuRyOR4+fCjZp6OjIwoKCvD06VM8efKEN1lOmjSJ//LRDwjt/aJfvnw5jhw5IqnrhAkT+BebOPzQVItKR5rXq6urMXToUDg7O8PCwgJffPGF5PZ//OMfWLlyJb755hsAwIIFC2Bvb48tW7YgJSUFNjY2AKQBwdRzEb8Et23bJhl7LjYbiyU6OlpS//Pnz/OAYOr1mTJliskvw85uQTBFEARUVVXxz6uXlxdOnDjRLUMm25vE6G19Jcw5nLO9eRAaGhp4E71Wq0VeXh4ePnzIn4sgCMjOzsatW7eg0Wjw4MEDNDU1QavVIisrC6mpqZIOpfr7E4WEhMDJyQnLly+HTCZDTU0NRowYAcYY7Ozs4OjoyD8z4um4MWPG4IMPPpC0JgBtpxqAtpE1Li4uRq+pqRYFLy8vPmw4KSkJjLV16hXDgNgSOGXKFERGRuKDDz6AIAi8c+7y5cuRn5/Ph14D0oBgWCggkF5PEAS0trZi7969/Es2ODjYaPrXnuDZs2cQBIGXN8nOzjbaxlSP+Hv37kGlUkGr1eLp06eS20xN5FNfXw+dTmc0KkF/6Jc+/dMZ70t/XgKRfkuO+Dxra2t5Z8m8vDzJ9kql8m+PCLhx44bkshg42puJ8u7du3/r8d7HvXv34OPjwz/LWVlZPWp2ye5m+NzNPVGSqLOWaW9vP+K8Bqa093kQr8/JyTH67miv5VQ8DWT4dy4IgskWIAoIpFdQqVQ4f/48/yINDAyU9MQnpLdLTEzkM3f6+PigoqKiV03G1BkYY/j55595iOspAaG/ooBAerScnBweCvz9/fmkH4T0VSqVCgcPHuSf+71793bJ+f2eSL/Je+fOndi5c6e5q9SvUUAgPZr4iyo4OBiFhYXmrg4h3aK1tRV//PEHDwlfffUV1q9f3+eL4XnxOXPmmPut6NcoIJAer6amRjLB0cGDByXjjwnpKzIzM3mfhF27duHmzZt9avXOtxGDgTiUkk4xmBcFBNKrPHv2DPv27eNh4cSJEz1qetv+4ujRo+12hDLVIzw2NrY7qtUrPXz40GjKZnGFy/5m3759kn4XvSEgtNeyadhJVnTp0iVUVVV1ZZU6DQUE0ivpdDoUFhby6W19fHz4sr+kjTh0Ur9YW1sjJiZGss3biikjR46UjK/Wd+3aNXh6egJo6zWdkZEBxtqmks7IyOiRI066W3V1NSIjI3koOHbsWL/pZ/AuenJA+PXXX5Gens7/RkaOHMnnHmCMYd68eSaHli5atEgyj0FPRgGB9HoajQZ37tzhX7a+vr7Iysoyd7XMjrG2xVn0y4ABA7B//36T2//5559gjJn8UutokEhMTMTSpUsxbtw4JCcnIzo6Gnv37gVjbSvM7d27t9OGjPVG+qEgMDAQtbW1/W6kwrvoTQGBMWbydNC6deswb948XlxcXDB9+nTJdT0VBQTS560Fe5IAACAASURBVOhPb6tQKPDq1StzV8ksTP36Dw8Pl7QgiMaOHctnaTtz5gwYY7hy5Uq7+26vBaG6uhr79+/HypUr8fjxY/j5+cHPzw+MMf5/cXGl/uLMmTOSz6M5p1vubXp6QBDDsTjjZFhYmKQYEmczFWd87OkoIJA+S61WIyoqin8x7969my8A1B+I88Ublri4OL7N0KFDIZfLcezYMQDSUDFgwAA4Ozvzyx09DSGeYmhsbMTNmzd5uXTpEtLT0/v8AVKr1SI3N1fSokXDc99PTw4Iv/zyC9LT0/llxtqWnb5w4QKf1lmfTqeDTCbDokWLcObMGYwfP767q/zOKCCQfuH58+eS2RcTEhL6bFi4fPlyh08JXLp0SXJfwy81wy9ow1MQ27dvx6xZs/hltVqN6OhoMMbw2WefISYmhpcvvvgCGzduxPnz5zv7KfcIpaWlfASCt7c3kpKS+tUIhK7QkwPCDz/8AH9/fyQlJfGpzw8ePIi9e/fi5s2b8PDw4NsKgoAPP/wQZ8+e5X0QFixYgEOHDpnxGbwdBQTS7zx48AChoaE8LFy9erVPdpybNWsWSkpKoFKp+IJFprxLB8Xjx49jxIgR0Ol0OHfunNE2X3/9NaZOnco7KR49ehSpqalITU3F/Pnz8csvv0gWV+rtKioqEB0dzT9Lx48fb7fzJnl3PTkgLFiwAAEBAZg5cybu3r0LxtpWjLSyssLIkSMla6188cUXvK+BfidFBwcHHDhwwCz17wgKCKTf0ul0uHHjhmTcubigUl8gdpoSV7wTi+Hqi+2NVGjv+v37979xhIP+KIb58+dj6dKlANqaZPvCSBOlUomEhAQeCmJiYlBWVmbuavVJPTkguLq6ora2FmvXruUBAQDc3Nzg4uLCtxswYACmTp3KFxrTL2FhYbCzs+MLm/U0FBAIAdDc3IxLly7xL/09e/YgPz/f3NV6b25ubliyZAmsra3x6tWrt7YgPHr0yKgYBgBBEKBQKMAYg6enJywtLeHq6mq00JJ+QBD3D/TugCAIgqSzYUBAAAoKCmgEQhfryQFBJpNBp9Nh7dq1uHLlClxdXXHhwgV+8Bdbyk6dOiW5Hw1zJKQXq6urw7Fjx/jBIDIyEjU1NeauVodlZ2fD2toaQFsTuLOzM//SksvlsLCwgFwu59szxuDh4WFU9AOCOL7bz89PMkFSXl4e3NzcwBjD4cOHERoaCrlcjuTkZL6NSqXiIyR6WwfF9PR0+Pv7889CTk5Ou8smk87XkwOCuMTz2rVrMX/+fPj4+MDa2hpKpRK1tbWwtLTEo0ePjO5HAYGQPkAQBNTW1iI4OJgfIKKjo81drQ55l1+27XWk079erVZ32uP1dCUlJQgICODv+blz5/pkH5XeoCcHBJFOp+vQku4itVrdazqvUkAgpIPKy8sl49nPnj1r7iqRTqLRaPjCYGKrUV8KPb1VbwgIfRkFBELew59//smneVYoFHjw4AG0Wq25q0XeQXNzMw4fPszfw5CQkD479LW3ooBgXhQQCPkbdDodkpKS4O3tzUdClJaWmrtapB0tLS24fPmyZPIs/eFopGehgGBeFBAI6SQNDQ04fvw4P/js37+/13XK64sEQUB2djZ/X/z8/CQz4JGeiwKCeVFAIKQLFBcXSxbmOX36dL9epMgcnjx5gt27d/P3IDU1td0lqknPRAHBvCggENKFBEHA/fv3+VA5Ly8vo+mNSed5+fIlDh06xENBfHw8qqurzV0t8p4oIJgXBQRCuolarUZmZqZkud++NO2wuajVasm8FWFhYTSzYR9BAcG8KCAQYgbNzc34/fffJZ3lnj17Zu5q9Sqpqal8mmwvLy+UlJT0mvHlpGMoIJgXBQRCzEgQBLS2tkpWmgwKCqIDXTtycnJ4KFAoFMjKyqLhpX0YBQTzOnv2LHbt2sUvU0AgxIzq6uokU/seOXLkrbMY9mWCIKCmpoa/Hl5eXjhx4oS5q0W6CQUE8woPD0dKSgq/TAGBkB7i/v37CAoK4gfH9PT0ftMLv7a2Fnv27JHMbNhfnjv5i0KhwIULF8xdjX5JDOZNTU38OgoIhPQwgiDgypUr8PX15QfMvLy8PjcVsFKpRHJysiQU0DwS/dvr16/5qSTSfQoLC6FQKJCRkSG5ngICIT1Ya2srUlNT+UE0NDQUT548MXe13ptGo8HVq1f58wkODsb9+/fNXS3Sg1RXV0vWyaDSPcXUcvcUEAjpJaqqqhAXF8f/oA8dOoQXL16Yu1odkpmZCT8/P173jIwM6phJ3ujly5e4e/cubt26RaULS1FRUbvvAQUEQnqh8vJyyTn748eP97je/QUFBZI6XrhwQXJ+kxDSs1FAIKQX0+l0KCkp4U2yPj4+OHPmjNnq09DQgPDwcEkrB62YSEjvRAGBkD5Cq9VKZm708fHplvP7giAgJiaGP663tzcaGxv7XKdKQvobCgiE9FFxcXGSzl41NTWddtDWaDSSZZR37dqF4uLiTtk3IaRnoIBASB/X2tqK6OhofjAPDw9HbW3tO+9Hq9UiPz+f78fX1xdXr17tghoTQnoCCgiE9CPl5eWSZalTUlLe2EdAEAQUFxcjICCA3yc5OZlGIBDSD1BAIKSfysnJQXBwMD/wX7t2DRqNBgBQUVGB2NhYfltcXBx1NiSkn6GAQEg/p9VqcePGDaOJU6KiolBaWmru6hFCzIQCAiGEa2pqwogRI2gEAiGEAgIhRGr06NHmrgIhpAeggEAIkaCAQAgBKCAQQgxQQCCEABQQCCEGKCAQQgAKCIQQAxQQCCEABQRCiAEKCIQQgAICIcQABQRCCEABgRBigAICIQSggEAIMUABgRACUEAghBiggEAIASggEEIMUEAghAAUEAghBiggEEIACgiEEAMUEAghAAUEQogBCgiEEIACAiHEAAUEQghAAYEQYoACAiEEoIBAiJGrV6/iX//6V7u3M8YklwsKCrB69equrla3oYBACAEoIBACpVIJR0dHXqytrWFpaSm5bvLkyXx7MSCcP38ejDFJmTNnjrmeRqehgEAIASggEGKkvRaEqqoqSRgQUQsCIaQvooBACICLFy9iz5492LNnD1asWIEZM2bwyxqNRrKtGA7c3Nxgb29vVHo7CgiEEIACAiEAgJqaGri4uCA2NhZpaWm8MMYgCIJkW8YYBg4ciObmZjQ1NaGpqQn19fUYOHAgmpqazPQMOg8FBEIIQAGBEO7Zs2ewtbWFTqcDALi7u2Pp0qX89oKCAn56obi4GBMnToSrqytcXV0xfvx4WFhYwNXV1VzV7zQUEAghAAUEQiSSk5Nha2uLjz/+GJ988onkNrElQTzFkJaWhvHjxwMA1Go1Bg0a1L2V7SIUEAghAAUEQiSio6N5K8H3338PrVZrtI1+B8UPP/wQ8fHxFBAIIX0OBQTS72VkZGD69OlgjOHrr79Gc3MzACAiIgKMMQwePBg+Pj7QaDTYunWrJCAIgoBt27bB09MTQ4cONddT6FQUEAghAAUEQqBSqVBYWNju7dXV1bh58yYA4OHDh6iurpbcnp+fj9zcXDQ0NHRpPbsLBQRCCEABgRBigAICIQSggEAIMUABgQDgp9oM6XQ6tLS08MuNjY3vtX+dTofXr1+bvE0QBMn8I4aP0draajT8mHQ+CgiEEAkKCL1Hamoq3N3dTd62Z8+ed97funXr8OrVKwB/dcZVKpX44IMPAAAVFRWoqKgAYwwVFRW4fPkyPvzwQ1RUVKC+vp7fz8XFBY6OjrCxsYGLiwvs7e1x5swZAG0H+7KyMpSVlYExxv9fXl7O61FaWgonJycAbUHC2tpaUs+MjAzMnDkTBw4cgK2tLS/isGTDKdDFMmXKlHd+TfozCgiEEAkKCL0HY8zkSBsA79VpVqlUwsrKiu8bAGxsbPjt27ZtM1mWL18Of39/AICDgwMA4NWrV9i+fTsAoLCwkAeEAwcOYMOGDfj5558lRQwBhYWF+OGHHzBgwAB8//33GDduHJYtW4YffvgBAFBSUoLg4GDs2LEDALBs2TLU1tYCgGTeEn2xsbGwt7dv97UiplFAIIRIUEDoHYYOHcp/GV+7do3//7vvvuO319fX8+vFBcd+/PFHMMZgYWFh1MS/adMmfPPNN1izZg0YY1izZg0WLVqENWvWAACSkpIwaNAgjBs3Dk5OTjhx4gSqqqpgZ2fH9yHONDpgwADY2Nhg4MCBcHZ2lgSE4uJio+dj2EoAtB3wa2pqJNeJAcHT0xOenp4YM2YMNmzYgLq6OpMB4aOPPupTa6V0JwoIhBAJCgi9h/grf/78+RAEAa2trfy6oUOHYteuXZg7dy4AYOPGjXj27BnGjRsHAMjLy8OoUaMk+1OpVCaLuM+kpCRs2LABO3fuhJOTEzw9PVFWViYJCG9rQQgODoarqysmTZokKdOnTwcA7Nu3j5ehQ4di7969/PKLFy94QKirq0NNTQ0YYygpKYEgCCYDgniqgrw7CgiEEAkKCL2HeOBeunQpLCwssGTJEklAAICffvoJjDE4ODjg+vXrsLCwwPDhw3nRl52djU8++cSo6AeEy5cv4/nz53B0dDQZENo7/y8GhFmzZr2xqT8nJ4cXxhjGjBnDL1dVVfGAoFKp4ODggC+//PKNpxgoILw/CgiEEACATCaTfKF7enqau0rkLcQDt/jvw4cPJQFh5cqVSElJAdD2/hYVFfE+BefPn8eYMWMk+9PpdFCr1UZFPyBYWFjAxsbGZAuCUqnkU5S314KgP9HYm0ybNg2pqamYNGkSTp48ya8vKSnBqlWrYGlpicbGxrf2QaCA8P4oIBBCAADHjx+XBAQaRtbziQfbsLAwMMawaNEiWFlZ4fbt2xg6dCgEQYCjo6Okb4K4SqmDg4PRUubOzs4mi35AyMvLg1arhZOTEzQaDQRB4P0H5s6di/T0dAB/BYTTp0/j008/RUZGBl68eAE3N7c3Pqf9+/fDwsICBw4c4NfNmDEDdnZ2aGho4C0IgiDg448/hkwmg06nQ3V1Nb755ht+H7VajebmZsjl8r/1GvdnFBAIIZwYDtatW2fuqpAe5MqVKwCAO3fuoKWlBTExMbyDY3JyMkpLSwEAdXV1b9xPe3Mr6Dt//ny7t1VVVaG6uhqPHj0yui0+Pl5yWalU4vTp05Lhk+TdUEAghHCnTp3C4MGDqfWAEEIBgZD+rq6uDufOnYNCoZAUf39/5Ofn09hxQvopCgiE9EPl5eWIj4/nYSA4OJgvSAUANTU1SExM5Lf7+Pjg+vXrUKvVZqw1IaQ7UUAgpJ8oLCxEbGwsP+jv2bMH9+7de+vphMbGRpw/fx5eXl5QKBTw8vLChQsX+szqlYQQ0yggENKH3b59G3v27OGhIDY2Fk+fPn3v/anVaty6dQve3t58n8ePH0dVVVUn1pq8iy+//FJy+e7du1i8eDFcXFzg7OwMe3t7Xr744gsAbWExKioKUVFRGDhwIPz9/fnl3NxcAMC3337LOx+OGDHCKEja2NggKysLq1atwty5cyWlqKgIACCXy9Ha2ooJEyZg3LhxvABAdHQ05syZg5s3byIgIAAAsHbtWlRWVvLRCJWVldi6dSvc3d0xbdo0bN26FVu3bm33tRCHWOqbP38+n0chISEB9fX1ePXqFZKSkt75te5vKCAQ0ocIgoALFy4gICCAH8ATEhJQU1PT6R0PtVotioqKJI+1b98+lJSUdOrjkDczDAgtLS2oqanB//73PwB/DYXUaDSYOXMmAMDX1xdnz57F48ePjUpdXR3CwsJgaWmJiRMnorq6GowxPuPhtm3bALR91sShjhqNBg0NDXB3d+dDJ0eOHImnT59ixYoVANoO1ACwcuVKXtfIyEhcuHABjo6OANoCgpWVFXQ6HQDgwYMH8PPzQ25uLi8DBw7k99+8eTMYY9i8eTPi4+MxduxYHD16FEePHkVVVRWOHTuGxYsX80mX4uPjMWLECAQFBeHJkyed+0b0QRQQCOnldDodjh07Bh8fH36g/uOPPyRL8nY1QRBQV1eH3bt38zoEBgbi/v373VaH/mTWrFl4/vw5gLaA8Pr1az5z4rFjx2Brawu5XI6FCxdK5rbQDwh5eXmIjY3FgQMHEBsbC8YYoqKiAACenp548eIFdu/ejZ07d8Lf3x9arRZ1dXVYtGgRDh06hE8++QR5eXm8Tk1NTfj666/5ZXFuhLi4OMTHx/MJmsSA4OrqisDAQACAnZ0d7OzsIJfLYWdnh5ycHABtASEiIoKv+FhWVsZXlhSJAaiiogLDhg1DeXk5YmNjcefOHRw6dAi///47nj17huLiYmzdupW3dukHDWIaBQRCeiGVSoWwsDDJqAPxS7Un0Ol0OHDggKR+V69eNXe1+gz92QjFFgS5XM5/va9YsQKMMTQ0NMDR0VFSAEChUCA/Px9A24yFjDHJfAGenp44f/48tmzZgvz8fFhaWgIA6uvrsXjxYgBtB+/ff/+d36e9gDBz5kycPXsWSUlJCAwMlLQguLm5SdZ6ANqG2t65c4c/xvz587Fp0yZeDGdi1L8s/j8hIQE5OTm4ffs2FixYgE2bNvHnIIalyMjIDr7a/RcFBEJ6AZ1Oh5cvX8LX15cfcIOCgkyuitcTpaamYteuXbzuycnJaGpqMne1eqVjx45JDsRiQLh37x5Wr14NlUqFMWPGYPPmzRgwYAAA4NNPP5XsY8OGDfj+++8xcOBADBw4kK/AKC585OnpiaKiInh5eeH58+eora3FwIEDUVNTw/sHdDQgTJgwAYGBgfDy8jIKCJGRkcjOzgZjDJcuXcKlS5egUCh4QMjPz+d1dHJy4v/XJy55LQgCDwiHDx/Gw4cPcfv2bVhZWcHOzg6MMSQkJKC8vBwlJSW89YK0jwICIT2UWq1Gbm6upENgTEwMXr16Ze6q/S03btxASEgIf06HDh3Cy5cvaXKmDpLJZJIRJPp9EBhj+Ne//oUXL17wPggTJkyAra0tJkyYgHnz5gEApk6dys/zA4C9vT0eP37MV3f09PTEy5cvERoayk9lbNq0CS9evOBLJz948ABJSUnYsmULgPYDwr59+1BTU4PPP/8c2dnZkoBgYWHB621lZQUrKyvI5XIeEKysrLBs2TK8evUKMpkMWq0WW7duRVRUFNRqNfz9/cEYw6hRo1BRUcFXkgwNDUV5eTlu376NOXPmYP369ZDL5UhISMDChQtx8uRJNDY2duj1Li8v5yN4+kPJysrif4sUEAjpQZqampCWliYZUpiYmMinte1r8vPzERUVxb+cIiIi8PjxY3NXq1eoq6tDaWkp3N3dTd7+v//9D5mZmUhLS4ObmxvS0tKQlpYm+aUtsre3lwQ0T09PuLm5wcHBgQeEpqYmJCYm4rfffgPQtnaHXC5HdXU1gLapjQ0DQkBAAIYMGQKgbdSDTCbDokWLAADnzp3jiznp1ycmJgZ37txBQUEB5s6di2XLlqGkpAT19fXIyspCYGAgbGxs0NraiocPH/L7iX0cVCoVBg8eDJ1Oh9u3b/OFnuzs7JCQkIDHjx+jqampQ4s4nTp1CgqFApcuXepwoOitVCoV7t69i127dsHPzw+CIFBAIMTcqqqqkJKSwg+Su3btwrVr19Da2mruqnWrsrIyHD9+nL8OAQEByMzMpJkc27FhwwasXr263fAYGxuLjIwMnD59WlJaWlpw+PBhAG1DDSdPnmzU3J6dnW3UyXXjxo38gA4AtbW1PFQEBgZi8eLFkiG0c+bM4cMkRRUVFVi+fDkA4OTJk1CpVADAh196eHhg2bJlAIDW1lY0NDSguLgYP/74I3788Uds3ryZ36avuLgYJ06c4PsIDQ0FAOTl5eHChQvYuHEj/vOf/0Cn0/F9va1PTHl5ORQKRb/7OwQAf39/HD58mAICIeZQWlqKgwcPSqY1zs3NpYPh/6mtrZVM/+zr64tz584ZrT5ISFfx8vLCpUuXzF0Ns2htbYVCoaCAQEh3yc3NlUxaFB4ejrKyMjr3/hbNzc3IzMzkr5uXlxcOHz5MnRxJl1IoFH3+tMKbUEAgpIulpaXB399fMpNhY2MjhYL3pNFoUFhYKOlUFRYWxs+DE9JZFAqFuatgVhQQCOkCycnJkgMYTenadZRKpWTop0KhwLNnz8xdLdIHUECggEDI39bY2CjpT+Dn54e0tDQA4Ksf/vvf/4YgCJKOX8XFxUhOTgbQ1owOANXV1UYdxpRKJX7++WcAbTMWdnTCobKyMt7jXKVSobW1VVLEYW7379+HIAgQBIF3yBI7igFtk+MYevXqFT7//PN2H7uurg47duzgl3fu3InCwkKT2z59+hQXLlzglz08PKDRaPhrYoo4HE9fc3MzIiMjJUPSsrOzeUc4Qt4FBQQKCIS8M0EQUF5ejvDwcH4g2rNnj8lphRljfFhZaWkp5s2bh5s3b+Lo0aPIycnBd999x7djjKGoqAjff/89GGNwd3eHjY0Nxo8fj7CwMABtEyYNGjQIK1asQEhICCwtLWFpaQnGGCwsLGBpaYnPPvuMP76VlRUePXqExYsXY+zYsbxYWFigoKAAQNtMd87Ozqivr+fDzcR//f39sWnTJsnzaa/oS0pKwk8//cQvOzg4oK6uTrJNUVERnj59ymfY06+zUqmEhYUFPxXz66+/8rJ582ZYW1tLrktPTzd6jxITEyWTM124cAFKpbIjbzEhFBAoIBDSMTqdDg8ePEBQUBA/4Bw8ePCtKyOOHTsWFRUVYIzByckJlZWVOHXqFIKDg40CwrJly3Djxg2sWLECEyZMgLu7O16+fGlyv4ar1vn6+vKha0Dbwferr75CWVkZ1q9fzzv0jRw5EgDwzTff8IAAAN9//z2USiW++OIL/Pnnn2CMQaPRwMrKSvI4jDH88ccfRkU/ICxdulQSHF6/fm0yTDx69AjTpk0zCgjilLhRUVG4fPkyAPAx/GlpaZDJZJg3bx5mzpzJr3vT3Ak6nQ5paWmS9+7kyZN8fD8hplBAoIBASLtUKhWuXbsmmckwJSXlnTrEBQcHIyoqCowx7N69G6dOnWo3IPz++++Ijo7G/PnzER8fD3d3dwQGBvJleFtaWhAcHIzg4GCj1or2AgIAXLt2DUOGDMFnn32GM2fOAPgrIBQUFMDKyoo354vLAjPG+P/113hgjOHkyZNGxTAgiMGJMYYZM2YgLi5Osg/9/ycmJiIwMNBkq4Q4ra9oyZIlfBIcxhgOHTrU4fdCJC4ApD87JU3ORAxRQKCAQIjE69evkZycLAkFaWlp7z2TYVJSEpKSksAYQ1JSEi5evNhuQIiOjsacOXPg6uqK2NhYuLu7IyoqCiNHjsSRI0eg1WqRmpqKH3/8EbGxsZLHeVNAkMvlGDJkCIYMGQKZTAZA2oJw7tw5o1MLoh9++AE3btzglztyisEwILi5ufG+FoaPER8fjyNHjkhaEMRWB5FKpcKvv/4KuVyOr776CowxVFRUQKvVYsqUKRgwYADi4+M7/J6IBEHAs2fPcOjQIcmIiFu3btEoE0IBgQICIW0zGe7fv58fJHx8fJCbm8s7GHYGOzs7/v/2AoLYFC+TyRAfH4958+ahqqoKkydPlozHjomJeaeAMH78eH69OFe94SkG8dy8qQO/YUD47bffjMqbTjEAwEcffYSAgAC+D31Lly7lAUGtVoMxhjlz5vDbCwsLERQUxNcfqKmp4esBAMDz58/xz3/+0+Tr/i5qa2slI1D8/f1x7ty5v71f0jtRQKCAQPqpZ8+eSSYt8vX1xdOnTzt1JsO4uDjIZDJ+oJTJZJDJZO0GBMYY8vLy8P333/POiS0tLX87IJj6pW8YEKysrPjBWZ9hC4J4WqKgoADfffcd/7+4dDBg3IIAtPUDkMlkUCqVksf47LPPIJPJeECYPn06Tp8+bVSPgwcP4vr16zzsiIv8NDc3834Vnen169e4fPmyZPrrkydP0kyO/QgFBAoIpB/Jzc2V9GoPCQlBU1NTlzcniwczUXsBoampiY9iEK8DYDIg7N+/n6+WB7w5IBw/fhw7duyAvb09AMDHx0cSEB49esQPsm9qQTh06BA8PDz4yIxJkybhv//9L8rLyzFx4kQcO3YMgOmAAAANDQ2ShYIGDx6MFStWSDopivv+9ttvsWbNGn7f4cOHo7S0lN/X1dUV3t7eWLJkCebOndulc01otVrcuXNHMtdCREQETYvdx/XEgLBx48ZueywKCKRP02g0+PPPPyVT9B44cKBbfwV++umncHFxMXlbZmamJCBMmjSJl6tXr/IRBIYBYcOGDWCMSVoAxOmHRWJA2LZtGx8u6ODggC1btsDJyQlLly7l9x8wYABfQtrwl/v69et5QBDrIx7EgbZmeTs7O976oFarsXTpUtjY2MDW1layP0EQeOdCfWJAGDlyJI4ePcq3FYeGKpVK3neCMQaVSgW1Wg2VSgXGGJqbm4322ZWKi4vh5+cnaV2oqqqifgt9TEcDQmtra6e+929aHEr8nDc3N8POzg7Tpk3DtGnTYG1tjT///JNv5+LiAgsLC5MlLy+vQ/WggED6HKVSyZdoFSctOn36tFnqUlpaCmdnZ5O3yeVyWFpaIjs72+TtXl5efJlaw4Bw5MgRybaMMcjlcsl1YkDYv3+/5PqXL19i0aJFvPWhrq4OAwcOlOwLAD/4Wltb8xEOH3/8MQDgq6++gqOjIy/ipEX37t0D0DZ3QkVFBQDgyZMnfN+zZs2CjY0NpkyZIqlTUlIStm/fjmHDhkmur6urw9ChQwGAv04LFy7E4MGDeRFbScylpqYGe/fu5Z83b29vFBQU0KmIPqCjAYExhhcvXnTa44otffoEQeCtdx4eHjwU29rawtbWFnK5XBIQOgMFBNInVFZW4siRI/xLevfu3bh58yb9oiPdqrGxEfHx8ZKZHG/evEmLSvUSoaGhktNGHQkICoUCjDGsXbuWt8J5e3vDTIkKyQAAIABJREFU1dUVERERfLuysjIsWrQIbm5u2Lt3L4C2fjk7duyAq6srtm/fDp1OB4VCAUtLS2zatMkoZBYXF4MxhuLiYjQ3N2P27NkoLS1FaWkp1qxZwwNCZmYmrl279sbSkdNjFBBIr/Xo0SPs27ePfxFHR0fj4cOH5q4WIQDaWmAuXrwIHx8f/hlNTU1FTU2NuatG2jFt2jQwxrBu3Tp+sH6bxMREMMYQExOD+vp6ODs7Y/bs2bh9+zaGDRuGGTNmAGhrZQgNDcXt27chl8uh0+mwePFiTJw4Efn5+Zg6dSpWr16NK1euwNLSEomJiSZHUYlDfNVqNTZt2iQpYmtdQEAAfvrpJ17s7e2xefNmyXUdGbZNAYH0OvqhIC4uDmVlZeauEiFvpNPpkJ2dLZnJccuWLdi+fTuVHlQGDRok6Zz70Ucf8fVK3kT/FIN+/5yWlhZ+yi43Nxd1dXVISEiAXC5HY2MjVq1aBSsrK4SFhUGpVPIWA1OnGIC2zs2MMTg4OHRouvPIyEgAbR18Gxsb8eTJE9560REUEEivU1FRgaioKMnENpmZmeauFiEmtbS04OTJk5KJty5dukR9FHogsQVBDAfbtm3r0P3EgGBqmLA4ZblcLsekSZMQExMDJycn3qfoxo0bWLhwIRhjmDx5MgDTAaG5uRkLFizg+7979y4iIyORkpKCqKgoo+1XrlwJLy8vAH8FBLHjb0cnfaOAQHq1+vp6JCYmSjoknjp1qkOpn5Cu8vz5c6OOi3l5ebSqZA83bdo0DB8+nK9e+i6dFMV1PRhjqK2tBQBcuHABcrkcaWlpkuAgl8uhVCphaWnJO1BXV1fzbdprQRD3D7RNfrZr1y6kpKTwUKM/eZg46gf4KyAAbeubiJ2N34YCAukzNBoNrl+/LhnSGBER0amzIRLSntzcXPj6+krCan19PXWU7UUMvys6GhDGjBkDxhjy8/ORkZEBxtpWVmWM4eXLl3xor3jd6NGjIZPJUFlZyUcgiWu1AMDQoUPBGOMzh+rTnxKdMYatW7catSDMmTMH//73v/nloUOHSkZBMcbeOJRS//lTQCB9UlFRkWSsuo+PD8rLy/tl68KHH36IwsLCdm/XaDSS85gWFhYdfp3EL6zbt2/j+PHjb922rwQ2tVqN8+fPSwJpbGwsnTroQ3raREkymQzW1tb47LPPkJCQAEEQMHv2bNjZ2cHGxgbW1tZoamriLRhA2yRthiuytrdCrCEKCKRfaGhoQFRUlGT42e3bt9HS0mLuqnWL58+fv/HA7Obmhg0bNvDLI0aMwD/+8Y8O7VucMTEiIgKffvrpG7ftzQFBEATU1tbi8OHD/DMUEBCAixcvmrtqpIv0tIDQ3SggkH5HpVLh9OnTkubg1NTUd1rC2Rzu3bsHJycn/iv/iy++gIuLC//FL45r1u+JLS5gJLYgfPvtt9iyZYvROcshQ4bA09OTP1ZzczPi4+MRGxuLMWPGAADy8vJ4a4H+dMmMMVy+fFnSAiEIgmTBJrG5kzGGDz/8kF8vjhvvqQRBQGFhIcLCwvhnZe/evUZLbZO+iQICBQTSz2VmZiI0NJQfAA4cOPDG5nhzuXv3LmQyGbRaLWpqasAYw61btwAATk5OqKioQHp6Op8VsaGhgR/ExYDg4eHBZ1wUV44EgIcPH/Lzo4MHD8a+ffsAQDKFsbjMsiAIePHiBX8c8Xb9FoTU1FS+aqR4+kJcRyEkJAQAsHnzZsyaNatrX7T30NLSgps3b0rmL4iLi+MzQ5L+gwICBQRCALT9WiwuLsahQ4ckMzJmZGSYu2oA2gKCo6Mjv6zfK9rV1ZXPB5GYmIjly5fz1gZAGhA8PDxM7gNom9r42LFjsLCw4FNEW1tbIy8vD46OjvDz88PmzZuxatUq7Ny5U7IP/YBgb2+PoKAgo+eg3zkqPz+fD+syN3GZZ/1TUJcvXzbZSYz0HxQQKCAQYlJNTQ1+//13yYI8KSkpZhuq1pGAsHz5cri4uKCwsFCyKJJ+QNBfDU7/NIH+2Gj9CV68vLzg6elp1Hta7J1vKiAMHDgQ//vf//j+QkNDUVRUJOmDYO6AUFxcjP379/P319/fH7m5udTJkHAUECggEPJWLS0tyM7OlvRYj4qKkvQW7modCQi2traYPXs2AGDZsmUdDgjjx4/HgAED+MHR3d2dn4oQTzPMnTuX38fW1tZoH5GRkRgyZAg0Gg3y8/NhYWGBpqYm5Obm8pYDcweEzMxMBAcH8/cxPDwcr169oqGIxCQKCBQQCHknOp0OlZWVkk6Ovr6+Xd5v4e7duyZXXQTaAkJFRQW0Wi3/hX/gwAE4ODjgl19+gZubGw8I4qkB/X0IgiDpvDh16lTJYi4WFhbIysri91m/fr3RPrRaLT+tIQgCUlNT+f7EkQ6MMb5fcf75riQIApKSkiSzGMbHx0OlUlEoIG9FAYECAiF/i1qtRkREhOT89Z9//klN1WYgCAKam5uxZ88eyamhzl4Gl/QPFBAoIBDSaXQ6HRITE7Fr1y5+gEpOTu7w3Ofk3el0OlRUVCAgIIC/5kFBQXj06JG5q0Z6OQoIFBAI6TI3b95ESEgIP3BFRkaisrKSmrf/pubmZkmfEIVCgZiYGFRVVZm7aqQPoYBAAYGQblFYWIjY2Fh+QAsMDMS9e/ck5/pJ+6qrqyWjSnx8fHD69Gk0Nzebu2qkj1IoFP1yanYRBQRCzKC6uhqnT5+WjIq4dOkSnYowUFRUJJmXIiQkBFlZWdQCQ7qFQqFAeXm5uathNhQQCDGzlpYWZGRkSJrLjx49isrKSnNXzSwyMjIkUxvHxMSguLiYQgHpdjExMYiOjjZ3Nczizp07FBAI6Ul0Oh2ePn0q6bcQHh6O3Nxcc1ety2g0GqSkpEiGjZ46dapb55ggxBS1Wg2FQvH/2bvvvyiOx3/gn39j7jhAFNEoKpZYopIYNRoTE01MkdjeaCyJGkssURM1eiBCsHdU7L3EGmM3GgvYsIMgRaUjvd6+vj/cdye3d4eKHhwcr+fjMQ/guNud2yv72tnZGZw5c8bZValRqampMBqNSE1NZUAgqo0URUFeXh42btwod5yhoaE4deqUs6v21oqLi20uDb127dprzVFPVJMKCgpgNBoRHByMJUuWYPny5S5bli5dKoP6w4cPAYABgaiuOHLkiOZURGRkZJ3p5JiSkqIZsCgoKIgTIFGdkZaWhnXr1mk+f65WFi9ejOjoaM3zZkAgqoNu3ryJ8PBwzVUR2dnZteZcfUlJiaZvRVBQENasWcOrDojqEAYEojouJSUFERERmksAY2JianxiqaysLBw4cEBzSuTQoUN1ppWDiLQYEIhcSEFBgc38AydPnkROTo7D16VOkb1hwwa5rhUrVuDq1asOXxcR1TwGBCIXVVZWhosXL2qGId6xYwcSExPfeJmKotjMirhlyxY8fvzYgTUnotqAAYGonoiNjcWaNWvkjn3VqlW4cePGKx9XWFiIQ4cOaVoljh8/jszMzBqoNRE5CwMCUT2jKAoyMjKwe/duucP/448/cPz4cXmf9PR0zakDo9GIGzdu8FJEonqEAYGonisuLsa5c+dsLnsKCwvDs2fP6vV49ET1GQMCEWm0a9fO2VUgolqAAYGINBgQiAhgQCAiKwwIRAQwIBCRFQYEIgIYEIjICgMCEQEMCERkhQGBiAAGBCKywoBARAADAhFZUeeCJ6L6jQGBiIiIbDAgEBERkQ0GBCIiIrLBgEBEREQ2GBCIiIjIBgMCERER2WBAICIiIhsMCEQuKC8vDwAQERGBK1euAABu3bqluU/Xrl2RmpoKAOjfvz+ePn0q//fw4UOMGjXKbrH2+eefIzEx0eb2devW4d69e/Jvg8Gg+f/KlSuxaNEizJkzB6NHj0aPHj3QoUMH+Pr6vuGzJiJHYkAgqkX69euHnJyct1qGoigQQqCiogLLli3D+fPnAQBCCADA77//Dnd3d7i5uUGv18Pd3R1CCLi7u8Pd3R0AsG/fPvz7778oKipC27ZtUVRUhKKiIrkMAPL+er1eLkd9PACsWrUKd+7cwfTp0yGEQM+ePeHu7o6ePXsCAJKTkzFq1ChcuXIFI0aMQGlpKb7++mtcunTprZ4/ETkGAwJRLZGXl4dOnTphz549UBQFV69exbVr1xAVFYWMjAwAQExMDMrKygAAN27cwKJFi+TfKkVREBMTg5MnT2Lx4sU4ffo0du7ciczMTHmfYcOGyZKRkYGSkhIAwOTJkwGYA8KPP/6IuXPnonHjxpg7dy7mzp2rCQjNmze3eQ4+Pj4AgIsXL+Lrr7/G8OHDUVRUBF9fX+Tn50MIgaKiIgBAfn4+fHx88Pz5c7Rs2RLp6ekQQiA/P99Rm5SI3gIDAlEtkZ+fjy5duuDo0aPIzMyEEAKDBg3C77//jtOnTwMAxo0bhxs3bmD27NkICAjAlStXIISAoihyOUlJSfjggw9sioeHh7xPkyZNAAAzZ85EYmKi3PFbBoTr168DAN599135OMuAIIRAnz59NMXNzU3+f9WqVTh8+DB+/PFHfP/99+jXrx/GjBmDMWPGAAA8PT2xdu1am9KsWTNHblYiekMMCES1SO/evZGdnY3MzEw0atQIABAWFmYTEIQQ6NatG7p16wa9Xo+0tDTNctLT021Kx44d5f+FEOjduzd8fX3tBoTt27fjl19+wbJly9CkSRMsW7YMy5Ytk/erqKhAmzZtKn0ea9euhRAC3377Ldq2bYtGjRqhWbNm8PPzg5+fHwDA398f7u7u8PT0hI+PD3x8fCCEwMiRIx20NYnobTAgENUilgGhe/fuAIDw8HDs3r0bgLlj4Y0bN6DX61FcXAwA2Lt3L0pLSzXLmThxok1Rm/8Bc/+BSZMmwd/f325AGDJkCJ4/f468vDy0bt0aeXl5yMvLk/d7+vQpPv/880qfx/Pnz2UfhPT0dDRs2BAANHUAzK0mBoMB6enpGDNmDEaPHv3G246IHIsBgagWGTlyJFq3bq0JCM+fP4cQAp9++ikaNmyIGzdu4Ny5c3B3d8dHH30EvV6vOcWgKAoqKipsSufOneV9rE8x/PDDDwD+CwiWpxLsnWIICAjAxYsXX/pc1IAAAFu3boUQAg0aNNDcp6ysDL/88guEENDpdHavhiAi52BAIKoDysrKZIuBSlEUZGdn29w3MzMTU6dOtSmWR+9NmjTBoUOHIIRAaWkp+vbtCyEErl+/jvz8fE0z/6BBgwCYw8GwYcMAQLYIVOby5csQQqC4uBgGgwF+fn6Ijo7G1atX5RUWQgi0b98e586dg6IoePbsGcaNGwchBOLi4t54WxGRYzAgEBERkQ0GBCIiIrLBgEBEREQ2GBCIiIjIBgMCkZNcv34dz54909ymKAoyMzNx7tw53Lt3D1FRUbJYd1IEgE6dOmmuYFD17dtX/v7pp5+ioqJC/q0OwQzYHy8BMF/GOHPmTABAbGyspgDA6dOnUVJSgsTERJhMJmzcuBFPnz5FaWkpXrx4oanLzz//jBs3brxye3z22Wc2t02ePBmFhYUAgAkTJmieBxFVLwYEIicJDQ3F3bt3NbfNmTMH3bt3h9FoREFBAf73v//h8uXLOHHiBI4cOQIAaNq0KTp06GC3AP9dFqleMiiEQHJyMpKTk+V6JkyYgIEDB8qRDf39/TFixAg5yuHNmzfh6+uL3NxcrFmzBn/88QfWrFkjL3NMSEiAEAJnz57FwIED8dtvvyEhIUFzGePcuXPx+eef44svvpBFfXxqaiq8vLxkAQBvb2/NtoiLi0O7du2wdetWzJo1Cz169EC3bt0ghMCGDRsc9TIQUSUYEIhqmDrWgBoQ9u/fj6SkJADAiRMn8Ouvv2LhwoV49uwZevbsifnz52PmzJk4evQoAHNAePr0Kby9vTVFnWtBCIEFCxbA19cXK1aswODBgzF79myMGTMG165dk/WwnBRq/vz5cgZI4L+xD9zc3FBeXi534uoO/rfffkNBQQHy8vIwffp0DBo0CBERETJgAOaAYDAYNMVyfIX8/HwMGDAAgPmySSGE/KlOOCWEgI+PD7y9vdG2bVvZgrBy5UpHvBRE9BIMCEQ1SFEU6HQ6AP8FBMvbrl+/jvbt2yMkJAQZGRmaok6o1LRpUwBAVFQU+vTpg5EjR2L69OlyHepOuEePHmjSpIls8o+KisL169cxZMgQ+Pr6oqCgQD7GXkC4cuUKPDw80KBBA3h6euLFixdy2Tt37kSLFi3w8OFDjB07FmfPnsXZs2dlkADMAcHf3x8ffvihLJUFBMt6qy0JS5YskS0jn376Kb744gsMHDgQffv2RWRk5Fu9DkT0agwIRDXo3LlzGDVqFADtKQbLOQ7UI+fDhw9j/vz5EEJg/vz5WLBggbyvOllTnz59IITAwIEDERAQIP+vFgBo3LgxMjIycOHCBdy7dw8AEBQUpJk10V5AuHTpkmy1mDFjBnJycjQ7+AcPHuDhw4dwc3ODh4cHPDw8NP+fO3cuxo4dqxnu+XUCgjoHxZw5c7Bnzx7s2bMHHTp0wKBBg1BYWCiDEhFVLwYEohokhEB5eTkAbUC4d+8exo0bh1atWmHHjh24fPky/v33X/Tu3Rt6vR69e/fGokWL5DIKCgqQn5+P2NhYhIWFaeZJsGxBAMyjMOp0Ohw+fFj2Q3idgPDkyRN4e3ujU6dO+OCDDzTrUNejtiCcO3cO586d07QgXLx4EXPmzMHixYuxadMm5OfnY9q0afL/+fn5aN26NXx9fRETE4NJkyYB+G+Uxjlz5sjWkw4dOqBHjx7w9vaGEALr1q1zxMtBRC/BgEBUg2bPni1/t+6kePbsWURGRuLYsWOavgLqETUAmEwmtGvXTv799OlTLF26FEOHDpW3CSHQtWtXeHp6ata9YsUKmEwmAOaAIITAsWPHANgPCKWlpRBC4MyZM7h165amVeL8+fMYP348Hj58iLCwMPk49fRAcnIyvvvuO3n/tm3bYurUqfjzzz/Rvn173Lt3D56enrh58yYAcyuHOmy02tFxzpw5GDZsGIYNGyYDgtoHwXJ+CCKqHgwIRE6g7mytp2kGIANCo0aNND39vby8cPbsWaxduxYAMHXqVHTv3h1bt27VPF4NBoMHD9asT6/Xy7+/+uor2UmxRYsW0Ol08nJCwLwDbtOmDRRFQXl5OXr16gUvLy+bVgrLgKB2MFQfDwBt2rTRnPIoLS1Fq1atNPUdPnw4fvrpJxla1JAxZ84cWb8+ffpgwIABcjnr169//Y1NRG+EAYGIiIhsMCAQERGRDQYEIiIissGAQERERDYYEIiIiMgGAwIRERHZYEAgIiIiGwwIREREZIMBgYg0LEdqJKL6iwGBiDQYEIgIYEAgIisMCEQEMCAQkRUGBCICGBCIyAoDAhEBDAhEZIUBgYgABgQissKAQEQAAwIRWWFAICKAAYGIrDAgEBHAgEBEVhgQiAhgQCAiKwwIRAQwIBDR/+fu7g4hhCy7du1ydpWIyIkYEIgIAJCcnCzDgbu7u7OrQ0ROxoBARJIaEPbv3+/sqhCRkzEgEJF0//59/PrrrzCZTM6uCtVDJ06cwOLFixEWFsZSw2XVqlW4efOm5vVgQCCqx0wmExITExEUFASj0Qij0YiFCxfK3zdu3IiSkhIoiuLsqpIL27lzJ4xGI0JCQpy+o6yvJTQ0FMHBwTAajUhISABgFRCysrKwbds2zZcFS90vwcHB2L59O7Kzs53x2adaxmQyISEhASEhITAajQgKCkJkZCTKy8s193vw4AGWLFki30c7d+5Ebm6uk2pNrurAgQMwGo3Orgb9f8+ePYPRaERGRoY5ICiKgqVLl8JoNGL9+vXYvXs3i4uViIgIGI1GLF++nEeD9ZCiKIiNjdW0DuzYsQMFBQWv9fiYmBisWLFCPnbv3r3IzMys5lqTq1MUBUajEcXFxc6uClm4du0ajEajOSAsWbIES5YscXadqAaEh4dj2bJlzq4G1QBFURATE4PFixfLHfu+ffvw4sWLt1quvbCQkZHhoFpTfRIdHc3Wg1rKaDTi/0wmE1+gesZoNDq1E1pMTAwOHTpkt9DbURQFd+/e1ezA9+zZUy07cEVRcOvWLdn6aDQaceDAAeTk5Dh8XVR1FRUVSE5OfmlxdmfUI0eOcP9TSxmNRvzf7t27sWjRImfXhWrQwoULcfDgQaetPzAwEOvWrcO+ffs0RQjhtDrVdXfu3MGqVaucdlSvKAru3buHsLAwTTDJy8ursTqQ1osXL9C/f39ZevbsCSGE5rbXPcVUXQ4dOsSAUEsZjUb8X1BQEJuc65mwsDD88ccfTlt/YGCgZsQ+y0Kv7/79+1i+fLncIe/atatWdERVFAVxcXGaTpBbt27leWYnun37NoQQOHDgAEaOHOns6kgMCLWX0WjE/6kd16j+UC9rcZbAwEAsWLAAq1ev1hQGhFeLjY1FeHi4DAWbN29GQUFBre14ql4xoV4+ZTQasW7dOqc3bdcnvr6+aNCgAaZNm4Zjx44hPDwcer0eDx48cHbVGBBqMQaEesrZAaGiogIFBQV2C9lKTk7WXLa6du3aOruDTUpK0jyXiIiIWhtu6jpfX18IIZCamgoA+O2333Ds2DEA5s+gEAIrV650ZhUZEGoxBoR6ypkBoXHjxpoihLC57cmTJ06pW21hMpmQlJSEBQsWuPRR96NHjzStIdu3b0dhYSEDgwOVlpaipKQEJSUlmDdvHs6fPy//rg3vJwaE2osBoZ5ydgvCgwcP4OXlBcA89n9KSoos9XXnoCgK4uPjNeMUbNmyBUVFRc6uWo2IiYnBsmXL5HPfvXt3rehPUdf169cPzZo1Q6tWrTTFy8sLJ0+edHb1GBBqMQaEesrZAaF169Z49913AZgDwuDBg2WpDUc1NUVRFNy/fx9//PGHpqPh245TUNfdvn0bK1eu1IzdwEGZ3ky/fv3sBq2ZM2cyINBLMSDUU84MCJMnT4aPjw/GjBmD9u3bQwhRr/oeKIqC27dva46W9+/fz7ED7FAUBXfu3NFcqbFv3z5kZWU5u2p1Rr9+/fD9999j7NixmtKlSxcGBHopBoR6ypkBoUOHDigtLQVgHkUtKCgIAwcORJ8+fdCtWzd07drVJVsRbt26pRm86MCBA9zRVYGiKHjw4AEWLVqkmRuCwerlAgMDcfLkSURHR2vKxIkTGRDopRgQ6ilnn2KoL6xHGdy7dy93aA6gKAoSEhI0/TXUyz2pbmFAqL3qbUBQZ6379NNPkZWVhd27d2uOWhs2bAjAfHmZerTbpEkTzTKysrLQrVs3bNiwQd7WqFEjm2X8+uuviIqK0jzW29vbpk5Pnz7FV199hebNmwMA4uLisG/fPgDm+RMA4N69exgwYAAA8zlEeyzrUBkGhOpj2afgk08+wRdffIEJEybgl19+kWXLli3y/snJybh+/fpLi6Xjx49j6NChla6/vLwcgYGB8u+ffvoJ586dQ/v27eV72VG6deuGPXv2yL/79++PkJAQm/vNnDlT8/zVcvr0ac39UlNT0bx5c1y8eBHnz5/XFEtdunSRv5tMJqSkpMDd3d0lLgOtbxgQaq9KA4K/vz9u3rwJAFixYoVDVmY9Yt6reqtbrnft2rVIS0uTy4mJiXmrukRGRmLWrFno3r07MjIy5AA91j9XrlyJ0NBQTJ48GR4eHggJCcHz58+h1+sxdOhQeX2x5XO8c+fOK0cJVH9PTEyU/xs8eDCePn0q76MoCoQQ+PnnnzFw4EBERkbizp07+PTTTwEAer1e3jctLa3SdR4/ftzm+TMgOFZCQoLm2v6NGzdCURR4enra3Pfu3bv43//+J//esmULfv75Z1mEEOjQoYPmNktCCFy6dAkPHjywKar27duje/fu8v59+/aVQ+x++eWX8n6dO3eGwWCwKW5ubhBCoKSkBAAwatQonDt3Dh06dNDUxWQyQQiBiooKuS57n2t7A2AdPXrU5j3YuXNn3L9/H56enli4cKEsLVu21HzW1BCtLtu6WE5Xv2rVKoaFWsxVA0JZWRnWrl0r/w4JCdG8R3/88ceXPl4IYXNw8DZu3LiBli1bymW/TmtbpQHh+fPn8svBEaPb+fj4oEePHvLv3r1746OPPnrpYyzX6+3tjRs3bgAwH3GpdXtTJSUlcHd3R/fu3XHo0CF88MEHmnVaBoRz585BCAEPDw8IIVBaWip74KvUkCGEgMFgQGZmJpo1a4bMzEzMmDED0dHR8kvK8k0yffp0fPHFF3brqF7eprYifPPNNzIgDBo0SPMCp6WloVGjRvj00081hQGhelRUVGhGBwwKCsL69ettdkSenp5o0qSJpnh7e2sCgkpRFNlpMyYmBvPmzbPZ2d64cQMNGzbE1KlTbYr15/THH3/EwoUL0atXL+Tl5aFVq1bIysp65dwIsbGxmsF1gP++UCwDQFRUFPR6Pby8vDTF3veFEMJmOzRs2FDzHiwqKpKPtQ5WPXv2lPUxGAzy83P79m3NOqzFx8drxlmIjIxEfn5+vb2UtjZy1YBQWFgoW4rVQany8/MB/Hfw9zKODgjl5eVITEyUy36rgKC2IFgf/ao7SyEEvv76awDAiBEj5BeUEAJLly6Vvzdr1gyKokCn06Ffv35y+Tk5OTJdWR5FN2vWTD4BtXz44Yfy97CwMPkFunfvXnzzzTfyfx07dpQbolGjRhBCyC8w68t8+vXrBz8/PxgMBjRt2hR+fn4oKSmxGxBWr16NwMBA6PV6BAYGIikpCW5ubvDz85MFgE1LxKRJk2Rp27YtkpKS5PqFEIiKitI8d+tt3alTJ7z33nsAgClTpsBgMMDd3V0W9RQGYA4I3bt3x4sXLzRl7ty5DAgOYjKZEBsbq5lfYNu2bS9ttvf09MS4ceM0JSAgQBMQFEXBzp07IYTA2rVr5es/ePBgCCHkhEspKSkQQsBkMmH8+PFtTC6YAAAgAElEQVSa0xTAf+/Z1NRUPHr0CPHx8UhLS8OFCxfw77//olmzZvL3O3fu2K3vO++8I9/P1ss+deqUTUAYMmSIzX19fHzsPt56O3z00Uea96C3t7cmIFh/Juy1INy4ccPu5yc5OdmmDg8fPtR0Et2xYwc7idYClQUEDw8PbNy4EQDw+eefy1OnWVlZ8Pb2RtOmTeU+aNeuXdDpdJrgl5WVhYYNG6Jz585yrBWdTgchhCaAjh8/Xr5vRo8eDV9fX7lDV82fPx+zZs0CAM3+TT31u2XLFnmbp6enbFlTi9rCa7kf2rRpE7Kzs7Fp0ybN94EQQoblGTNmyGWop5T/+ecfeZter5cHJb///rvNvlndzwghcPLkSU0LQo8ePeT9r169ave1ea1TDOqGys3NhRBCXqOtfuEEBgbCYDAAAC5duqTZEGpqys3NlS+Or68vIiMj5Yup1+sRHx8PAOjVqxe+//57zXoBbQuCGhD27NmjSULq/T/55BMZRtSNWdmAK+3atUNubq7mxbH8uXLlSpw6dQqZmZnyhVZbEMrLy9GiRQvNNhNCYNasWRBCoG3btrI0aNBABgR1OzZq1AhRUVH44osv5PqSk5PliwsA3377Lfbt24cpU6bg/PnzMJlMslgHBC8vL814AoMHD0anTp0YEN6COnWyZWe4vXv3vlb6zsnJQVpaGlJTU21Kenq67Kyo0+nwww8/yMdZvu+vX78u3+O5ubnIysqSRx+KoiA4ONjmcZGRkRg1ahT8/PwQFxeH2bNnw9PTU74vZ8+erek3Y6kqrYVRUVHo1asXDh8+rCnqAFiA+cgpJyfH7jZITU1FRkYGcnJysGfPHnz55Zc266+sPs2bN0d0dDQePnyoub1fv36vdTrh3r17mpkvd+/ejfT09Nd+7uQ4lQWEiIgI2bKrthopioJ+/fph6tSpKC4uhhACJ06cgBACz5490zw+KysLQgiMGTMGiqJAr9fj3r17AMyBo2/fvjh//jwMBoPsk+bl5QVfX1+Ul5fbDQj37t2Tt5eVlcn9oRBChu4WLVrg7t27mhYEABgwYIDcIQ8bNgyPHz8GAGzYsKHSgKB+lgoLCyGEwLVr19CwYUPZcta2bVssXLgQly9fhpubG8rKygCY96nqAYW7uzsyMzNtTjF88803AMyD1lX2OatSQLhw4QIMBgN69OiBHj16oHHjxujYsSMCAwPx008/ATAfvViuzN3dXbMDzs3NRUREBLy9vdGwYUO5kdVldu7cWW7U1wkI/v7+mg2r/iwsLNTcbh0QIiMjERkZCZ1OJ3+Pi4uzGxDOnTsHHx8feV62sLAQnTp10gSEvLw8NGzYEEL8dyri3XfflcXd3V0GBPVNkp6ejgULFmDo0KH4/PPPce/ePXz66adISEiQ9SwrK8ORI0cwZcoUdO3aFX369JHFOiB4enqiU6dOmuLp6cmAUEWKouDmzZtYvHix3IH8+eefVRq8KC4uDp999pmmCCFsblOlpKQgOTkZycnJGDBggPzd3pHwrl27EBAQAMA8bLX6frH8vJhMJk1LgPX7ujJVCQiZmZlYvnw5li9fjqVLlyI8PFz+rbp27dort8M333yj6cPQrl07u60C6g5i3LhxEMLcsjho0CC793vdobrVKaotB2XavXu37O9E1a+ygKDuFAHz+6J58+aa01DAfwekS5YssXm8GhAA2OxnunXrBk9PT4waNQqTJ0+Wj1m+fPlLA8LAgQPRqFEjuRwhBIKDg+VBXo8ePeTBr3VAUF25cgWjR4+W4eZlAeHEiRPy9gkTJmDatGmYNGkShBDw9/fH6tWrAQBjx46VB9aWhBA4fPgwANs+CJbfZ0II3L171+bxVQoIUVFR8PPzw6NHjzQlMDAQkyZNAlB5QLD+4lGPgtQUaL1My/UClQeEPn36aJ6k+tNyJ2svIOzcuRObN2+GEAI7d+7Ezp07ER8fbzcg+Pv7Y//+/fDw8EBeXh7S09PRvXt3TUAIDAyUpwsuXbokj6bUF0gtRUVF+OSTT+TyDxw4gNmzZyM1NVU2q1o2k4WHhyM4OBhTpkzB6tWrcenSJVksA8LFixeRlpaGY8eO4X//+5/sxFlQUIAjR47YvPAMCFqKoiAqKkozeNHhw4ff+pLEnj17at63p06dksWSwWBA//79bYr150b94oqNjUVoaCg6deqEpk2byuWrLAPC4sWL5ftUCIHy8nK7pxGsl/EqDRs2xNOnT/Htt9/i1KlTaN++PQDzd4D1lTRNmzaVR/uW2+Gff/6pdP1qIF+xYgWCgoLk7Xv37sU777wjn2f//v3l/3x8fOTRYFUpioJHjx5pLkvdvn07R3CsZi/rg+Dh4YE1a9ZgzJgxmDhxIjZs2AA3Nzf5/6+++gpubm52OwNbBgR1f2O9n5k2bRpGjx4tH/P777/bDQiTJk3CrFmzMHLkSAwaNEizDPXUV0lJCf766y94enqiX79+moCwefNmdOrUSVO/Tz75BK1bt35pQLA8jThixAj89ttvAMwtc6dPn4aXlxc6d+6MiRMnYtiwYfK+27Ztw6NHjzQt7NYBQT11qf6ttuJbeu2AUFRUhNLSUgjxX6e3Zs2a4ciRI68VEPz8/NCoUSNZ2QkTJsj7eXh4yC+A3r1746uvvpLrVXfs3t7eWLVqlbz9ZQFh8uTJaNq0KXJzczFs2LBKTzGMHTvW5gqN7777TrMstQVBrSdgbvpaunSpJiCoX0pCCPz999/YsmULJk6cCCHM/Sq2bNmiebEtT4eoX5I6nQ4ffvihpj5qYJgyZQpmz54tl7NlyxZNQBDC3KFFHapYCIHc3FzMmzdPBjFLDAhm0dHRWLJkidwhHDx40GHDHKtHLeplf+oHfsuWLdi9e7fmvuopOmvWO+yDBw/Czc0NAQEB2LNnDxITE/HOO+/YhPCnT5/Cx8cHQ4cO1bz+Qgh07txZXuHwqvVVJisrC35+fkhKSkLPnj0BmC8Dzs3NlUdWat8MNTgfPHjQZjuoRzfW62/QoAGePXsm/3Z3d8eff/4p72d5FcOUKVPk5/ZtAoIlRVGQlJSE0NBQTQdHy9ZQcoyXBYQlS5ZACIHo6GjZR0zdmaqnj00mE1q2bInBgwcDMIfydevWaQICYH5PzZkzB4D5VJS/v788KIyLi0Nubi7c3Nzg6+urCRTq6eVZs2YhJydHfreq+0P1fXrgwAEA5kvne/bsicLCQri7u6O4uBjZ2dkQQsjvXLW/WlhYGP755x80btwYAOT3tRoQ3NzcUFBQgCdPnsgDX09PT6xbtw6AeT/avn17eeXc06dPkZaWBp1OJ+uqtqZbB4QWLVpAURRs27at0s99pQGhZ8+eMiB07dpVLiA9PV02pc+dOxeKoiAwMBDz5s0DYD8gqKFg/vz5sgmwa9eu8kurpKQELVu2lE2P6hH0iBEjIIT5Eqp79+5Br9cjNDQUXl5eMiBYnq+3TItqh43p06dDiP96j6qOHj0KnU5n93ylZQ/TlStXws3NTdM5UN1pW/dBUOugKAoCAgIghEBZWRm++OILNGnSRHM0qj4vIQQSExNhMBiwa9cu+Pr6yo6aO3fulF98U6ZMwYULFzTrUgPCnDlzMGnSJFy/fl2eciktLUVISAi+/PJLXLx40aae9Tkg3L59WzP3wd69e6tlQiSDwYBDhw7B19cXbdq0kR98leV7z2AwoEWLFjbldXfYS5cuhU6nAwDk5+dDCPM0vp6enjhw4ACSkpKQnp6O1NRU3Lt3z+YyYfUz97rr8/T0xLVr15CSkiKP5gHzFTcGgwHx8fHyMy6EwK1bt+Dl5YVu3brJVgx720EIcyevM2fOaOqjHtGpvbAtm24VRcHZs2fldnREQLCkKApSU1Nl51Sj0YjVq1c7fEyJ+uplAUF9/1heAWb5u9o6p+6s1Z35smXLbEJzSUkJWrduDSHMp6fU9/zZs2eh0+mg1+sRFhYGX19fAMCJEyeg0+nQuHFjLFy4EL///jsA82XK6n7s0KFDAIAnT57IfhLdunWDoihQFAUdOnTQ7DsbNGhg81hFUeDv7w+9Xo/hw4fLUOHh4YHTp09DCAGdTifHDHnx4oVcTosWLeT7/cyZM3LZly5dkttIDQh3796VAUGn02H9+vUQwnxKvLLg65IDJXXr1g2zZ88GYJ4hzrrZHgAWLFggO3RYWr58OZo1a6bpNGZNHYegsoDw22+/4eTJk5p1xsfHazpvqV+SU6ZMQUBAAJ4/fy7/t3DhQiiKgv3798sPg2VAUM93qUdUZWVlcl2jR4/GgAEDMGDAAAwZMkSe21V/qqwDgqtfJ/748WObUfdKS0ur7XI3k8mE6dOny7/z8vKwZcsWTJo0CYMHD8aAAQM0gx15enqiqKjIptg7h2npl19+gRBCdpoFzJ2O1IG5CgoKsH79ekydOhXjxo3DDz/8gDFjxmjqBgAffvghmjZtKntlv4rl+2nYsGH46KOP8NFHH6FPnz6aDpyFhYVYv369/Ds7OxurV6/GxIkT8d133+HLL7/UDPilhmrLv63X2b17d9lqoTp37hwMBoM8iqwu6qBM6uWtHGfhzVi+f2rTZY47duyQAYFcNCColzm6ubmhQYMGmsGHyEwNCMXFxfD19a3Suee6wGQyISEhQTNgzrp16/hFTg6VmJioCZ7r169HSUkJx1l4BSGEPOVcmwLCnj17ZF8actGAQK9mNBrlWBFqiYmJeaty//59pz4nk8mE+Ph4LFiwQI5TsGnTJoc3ORPZY6+DoytO2/3o0aO3/q6w/N7x9PTEjBkznP20yA4GhHoqLCwM3bt313xQ35bl+TVnlLZt28JoNCI4OJgTIpFTnTlzRgYFZ34mqqNYXkXwpiyX16NHD8yfP98BW50cjQGhnlJPMSiKIgfQqetKS0vx119/ac4Pnz9//q2H5SZ6HcnJydi6daumI2NlI1bWd0KY5yIwmUy16hQDaTEg1FPWnRRd7ZxpSUkJzp8/r+mDcOzYMZvLPYnexuPHjxEZGamZRTI2NtbZ1ar1LPsCMSDUXnUiIFge3RqNRixYsMDmPs2bN8fs2bOhKArGjh1rt6hvSjc3Nxw9ehT5+fk2o7xZjm4HmGeXs748Ub3+256uXbu+9UyTNaE+XeZYVlaG6Oho+SUeHByMffv2VXvLwrx582ymKQbMl25VdnVCUlISevXqZfd/s2fPtntZr73Wn0ePHskBhN5//334+/trSlWNGDECAQEBLy0AsG7dOpsJw6yLOv+Bh4cHtm7dCsA84qLl2AbWvL29ceHCBZSWlmLixImaYm966er06NEjrFmzRr6f1qxZY3fES3o9DAha27dvl5cjTp8+3e6+TB0yetu2bbJT5av2ZW+iVgeEFy9eIDw8HOPGjZNT2QphHkXu8ePHePz4seyApk4INX78eNy/f18WIYT8XVEUhISEoLCwUJ5HS09PR2JiItLT05Genq750i0vL7cbEAoLC+VUy+pY+S8r1lNC1wb1KSBYKi8vx507d2TLgtqR0foyUEeYMmUKTp8+ja+++kpzSWNOTo7NbKCqlwUEAHKIV3UiNbWjaaNGjTSjF1oGBMsBUwoLC+V4CVURHx+PuLg4WaZNm4aePXtqbgPMQ6mnpaXJMnLkSBw4cEBzmxrU1bENNm/ejI4dO9p8btRB0Pbt2ycHjqmoqMDdu3dluXTpkmYm1o0bN0KI/8ZLcJSHDx9qOiBGRERwoicHqc6AIISwG8aFEDaD0tUmq1atgru7Ox4/fiz3Xz169MDRo0dx//595OfnIyUlBRkZGfDy8kJsbCyysrKQlpYm92WWA+m9qVodELZv346+ffvi559/hl6vR0FBAdzc3DBs2DAMGzYMHTt2xMmTJ1+6DOujK/XvlJQUOXqdTqfTjDQHmAfPGDVqlAwIiYmJckS4xMREGVgszZgxAzqdDq1atbK5zry2qa8BwZI6O6P6pa9e025vfIw3oQYEwHy0fOXKFQDmna31dfyqVwUERVFQUlICnU6HJ0+eaCZuUk8T/fzzz3Inq4698csvv8ihvF813fPrEEJUeslo06ZNodfrodfr5QA0arEe7MtkMmHNmjU2X2Z5eXn45JNP5LoA2L0aJTMzUwaE8+fPY9++fdiwYYNDLm1++PChZnCkNWvWoLi42OVOxzlbdQcEIbRTG6uTgtXmgADApoXz888/11wptnv3bkRERAAwP89nz55h6tSpcsRhdXTGt1HrA4K6AdQRDC3HRZ85cyZOnz6NH374AXq93m5Ta2UBYf78+XIKaiGEvMzG8v5CmIeljYmJwdixY/HDDz9ACCGbeVRlZWXo06cPhBDyi6lx48Zo2bJlrR1tjQHBlvVgSitWrEBhYeEb7xAsAwLw3yibR44cwdSpU+0+JikpyeZIWh3qe8yYMfj++++xdetW9OrVCw0aNJBXjqi/q9QWBJPJJIf8btiwoZzfQB35tKrUQCKEebjZ1q1b22wfy+mex48fL4cSDw4Ols+lUaNG0Ol0aN26NVauXIm2bduiUaNGaNiwIYYPH46srCzZRKp+JtXh2dUCaANC27ZtAZhnaH0TauuEZWBcu3YtA0E1c0RAePjwofwcCCHkTIlCCIwfP14OsQyYDwjnzZsnA8KcOXOg0+lkgK6oqEB0dLQM2EIIrF+/Xg6prN6mDsr1wQcfQK/Xy9vVOQ6EMM+kqH7mtm7dCkVR5NwROp0OH3/8sc1zqWxfVllAyMjIwMcff4y+fftCCCGnYK8XAaFPnz6YM2cO9Hq9HNte3QlPmzZNDrEK2D8XW1lAUCe4UVk2U1rq2LGjPMWwfPlym/+rX7rqjGBubm5yBq6///4bXl5etXLgDQaEl0tISNBM3LRixYoqT9pjHRDU/gh+fn6VjhnxshaEvLw8xMfHY9q0afI2Iczz3I8YMUJz30ePHqFNmzbQ6/VyjPiuXbuioKAAiqLIoYyroqSkBG5ubvLSPQAYPnw4PD09Na0uPj4+clhyvV4Pg8Egf1cDAmDui9G6dWsA5p17QUEBkpKSMHz4cKSkpGjmZAHMAUENG2oYsAwIb6K0tBQ3b97U9E/ZsWMHx86oQY4ICHq9Xk4GVlxcDHd3dwCQQVZ9D6lzGqgBQZ3fQfXjjz/i/fffR4sWLdCnTx8oioLo6GgMGzYMs2bNQuPGjWXLWe/evQFAM/HZe++9h6tXr2L+/PmaoKzT6bB161YMGTJE9tdR62evxdLeZGqVBYQHDx5g7ty58na1ZbxeBISgoCA8fPhQPmn1xVaPjCxng6tqQDh+/Lgs9gJCREQEhBAyIDRt2hRBQUFYu3atZpkmkwmKouDFixd48uSJnEmyoqKi1l6Pz4Dw+hISEhAREaE5DZGYmPjKI0vLgKC2JKlfSJUNoPOqUwwZGRkyIMTGxsLf318GBLUfRZMmTSCEQOvWrVFeXi4nT7IsVT0qPnLkCIQwz+8AaD8nQUFB8PT0lDvV12lBAGwDwvvvv48uXbpg+PDhePDggZydztEBobi4GJcvX9aEgoMHDzrs1BJVjSMCgr2+X+rtgLnFKjY2Fs2bN8fff/8tA4LlvAqWpaioCO+8845sBbh27RoqKirQvn17eR91qPvNmzfLVgIhBK5evYrGjRtj2bJlsn5ffPEFtm7dqnm8WiyndFZVNSAMGzZM7svU/nX1IiBYnmJQrV+/Hps2bcLo0aNx7do1ebsQtrMWVhYQ1EkwNm/erNnw6v8DAgLQtm1b2QdBnQwEgM1AIWoHsCZNmsBkMskw8+jRIzRp0uStt0N1YEB4M4mJidi8ebPcuaxcuVJ2gLU2ZcoUHD9+HIMGDZLvnSZNmsg55e153YBQVFQEg8GAM2fOyIBw9OhRrFmzBqWlpZpOiiq1BeFNtG7dWjOhi/Xn6qeffkJRUZEMJy8rAwYMAPBfQLh58ybatm2LkpISPHv2DMOHD8fFixcxYcIEzbpedYrhZYqKinD27FnZOTU4OBgnTpxgS0Et4KiAYHkwFhkZKW8HgBUrVuCDDz6QB5dqQLCe8TEtLQ3bt2/Hli1bZIiPjIyEEAInT56Upy7U/Yc6OaF6ANCtWzdcvXoV/fr1Q5cuXeRy1St2PvvsM2zatEnevnHjRrunodWA8Ndff8nbKgsI+fn5mD17NsaOHQshhHxMvQgInTp1wsCBA+32vP7qq680G0z94khPT9fcZkn9e9euXejQoQMSEhLwyy+/YPz48UhJSZH/V5ts1YDQsWNHOfvWN998I/sg3L17F02bNpVfjgDQv39/5Obmom3btvD399ecBqktGBDe3rNnz7Bz504ZFpYvXy5nQAUAX19f6HQ6ObXze++9hzZt2gAAhg4dqpmkSPWqgNCzZ0906NAB7u7usjOSOiuoEP/NkqgGhKysLLRq1QqtWrWCm5sbWrZsiVatWqFbt24AgF9//RWenp5Vfu72WutUli0Iluy1ILi5ucHDwwPdu3dHs2bN0KxZM/z000+IiIiQ78+XretlAaGkpARHjhzRtBT8888/tbZfUH3liIAwdepUuLu7Y8WKFXj//fflaV3rPmUdO3YEAE0fhGbNmuHDDz/EmjVr4Onpib1792LkyJFo1KgR1q9fj++++w4eHh7YvHkzhBBYvXo1fv75Z+h0Ojlt85IlSzBmzBgIITBq1CjZV2fUqFH4+OOPZR8E9Uq5WbNmyU7t9vj5+aF58+aaq58qCwiFhYXy4FgNQE2bNq0fASE0NBRJSUnyqBwwX/upznNvPfObOrXlsmXL8Ouvv9oNCDt27EC7du1gMplgMpng5uaGhg0byumoLXXu3Blz587VHPGpL/66deswYsQIXLx4ESaTCUIIfPzxx/j444/RokULDB48GE+fPn3llRbOwIDgWBkZGdi7d6/cGS1duhRHjx6V/zcYDPKcJfDfTl1RFM1U4gaDATqdTnObu7s7nj17hk8++QSDBg3C5s2b4e7ujk8++QRff/01vv32W3z77bf48ssvMXnyZNy5cwdff/01Bg4cqKmjvRYE6+nZX1dVA8LSpUvRoUMHOQ2tum4/Pz9N60tOTg6Cg4Oh1+s1nb3sCQsLw1dffaUJVEVFRdi9e7d8HYKCgnDjxg2ePqjFHHUVQ1RUFObNm4fDhw/L244dOyZ/P3XqlHz/P3jwAJcvX5b/+/vvv2E0GuX00Yqi4Ny5c5g3bx527Ngh3z/Xr19HUFAQIiIiZGu1ut7Tp08jJSUFK1asAGCeyfTPP//E1atX0b17d/z9998AzO/7iIgIObGXPZZTnmdlZeH333+Hp6enZryN3bt3Y82aNdDpdPKqup49e0IIgYEDB8pL8d9GrQ4IiqLYvT69oKAAcXFxLz2/n5iYiDt37iA7O1tz+5EjRyp9zO3bt22+QK9evYq8vDybL5iysjKb5smsrCykpqYiNTUVaWlpla6nNmBAqD55eXnYv3+/3EmFh4dj+/btdu9XFWrzJmAOGJmZmXj27BlSUlJkyc/PR2lpKR48eGBzpJyQkGBzaeKYMWOwcOHCKtUDMJ93rcy///5r97Z///33tWbTvH//Pp48eSL/3rFjh9373b59GzExMSgqKsKmTZs0o2Y+ePCgWsa2IMdzxYGScnJyoNPpcPv2baxatarSzoiVsQzNZWVluHPnjubzD5gv1Vf7u1l78OCBQ8YCqdUBgaoPA0LNKCsr04SFBQsWaJrZna2uXsJXXl6uucokKCjIbgCi2s8VAwJgHoTv66+/xowZM+rsfDAMCPUUA4JzHD58WDOZ1JkzZ9hR7jUoioKCggIsWbJEbrvQ0FCHj5hINc9VA4IrYECopxgQnEtRFBw/fhyhoaFyh3fq1CnZh4bM2ygtLQ3Lly/XdAStbB4UqpsYEGovBoR6igGhdvnrr780YeHvv/9Gfn6+s6vlFM+ePcOKFSs00yZb9kkg18KAUHsxINRTDAi1k6IoOH/+PMLDw+UO8ujRo7V2wC1HUBQFsbGxmlCwceNGnj6oJxgQai8GhHqKAaH2M5lMuHbtGv744w+54zxw4IDLzCIYExOjCQU7duxwyCRLVLcwINReDAj1FANC3aIoCu7evYuwsDC5Q92+fbscK6CuiI6O1lx9sGfPnlp/STBVLwaE2osBoZ5iQKi7TCYT4uPjNachIiIiam3LwsWLF7Fo0SJZ1/3797v0KROqGgaE2osBoZ5iQHANJpMJaWlpmg6Oy5Ytq/LMk452/vx5TZ3+/PNPFBUVObVOVDsxINReRqMR/7d7926Eh4c7uy5Ug0JCQnDw4EFnV4McrLi4WDPOQkhISI0drZ85c0auVw0FRK/CgFB7GY1G/J/6C4cmrR/Ky8v5gawHcnNzNZ0Ag4OD8fz5c4eNNlhcXIxTp05pwsixY8fq7OiM5BxqsKTaRwaEbdu2YcGCBRzVzcWVl5cjODi40vHtyTW9ePECkZGRmiGfY2Njq3xQkJeXh7/++ksuJywsDCdPnmQooDeWk5MDo9HI91AtU1ZW9l9AAMxzU6s9i2/cuIFbt26xuEi5ceOGnOXOcj5yqn9yc3Oxa9cuzU7+1q1blbYsZGdn4/Dhw5rJp/75558arjW5stDQUJ7yrGXCw8Oxfv36/wICYJ6Pfv369ZqZ0VjqfgkKCsKGDRuQkpLirPcb1UIvXryQ54CNRiMWLlyIS5cuIT09Hfv27ZO3L168GNHR0TzKo2qhHq2uXr0aycnJnHTLScrKyvDgwQMsXLgQCxcuhKIo2oBARPVTbm4uTpw4AaPRiI8//hjh4eG4d+8ev6ypRphMJmzdutXpB1MsRpw9e1YeDDAgEJFGu3btnF0FIqoFGBCISIMBgYgABgQissKAQEQAAwIRWWFAICKAAYGIrDAgEBHAgEBEVhgQiAhgQCAiKwwIRAQwIBCRFQYEIgIYEIjICgMCEQEMCERkhQGBiAAGBCKywoBARAADAhFZYUAgIoABgYisMCAQEcCAQOzXtXQAABlLSURBVERWGBCICGBAICIrDAhEBDAgEJEVBgQiAhgQiMgKAwIRAQwIRGSFAYGIAAYEIrLCgEBEAAMCEVlhQCAigAGBiKwwIBARwIBARP+fwWCAEEKWVatWObtKROREDAhEBAC4efOmDAdubm7Org4RORkDAhFJakBYvXq1s6tCRE7GgEBUA65fv479+/dj9+7dtbqEh4dDp9M5vR6vU/766y9kZWU5+6UlclkMCETV6PTp0zAajXWqDBw40Ol1qEoJCQlBWVmZs19qIpfDgEBUTS5cuACj0YicnBxnV8VlKYqCgwcPwmg0QlEUZ1eHyKUwIBBVE4aDmrN69Wps3brV2dUgcikMCETV4O7duzAajc6uRr2RnJzM7U3kYAwIRNXg1KlT3GHVIJPJxO1N5GAMCETV4MSJE9xh1TBubyLHYkAgqgYMCDWP25vIsRgQiKoBA0LN4/YmciwGBKJqwIBQ87i9iRyLAYGoGjAg1DxubyLHYkAgqgYMCDWP25vIsRgQiKoBA0LN4/YmciwGBKJqwIBQ87i9iRyLAYGoGjAg1DxubyLHYkAgqgY1HRDy8/Mr/d+LFy9QUVHh0PUpioK7d+/Kv48fP273fs+ePUNGRob8+/Dhwy9dbklJCTZu3PhGdWJAIHIsBgSialDTAUGv12PHjh0AgHfffReNGjWCEAJCCLRq1QoXL14EADRp0uSlpWXLlnKZT548wbZt25CdnS1v69Kli1zuDz/8oFm/JXX65Tlz5uDEiRPydiEEZs6cie7du8vbLl++LMvkyZPRu3dvzW1FRUWvtQ0YEIgciwGBqBrUdEAwmUwQQgCA/GnPy/5n+f9ffvkFer0eY8aMgRACx44dAwBkZmbi+PHjWLJkCQBgwIABGDBgAIQQ8ncA+O233xAcHGw3IACAt7c3EhMTAQAzZ86URQgBnU6HKVOmyNuuXbv2WtuAAYHIsRgQiKpBVQLC7t27UVxcjDFjxgAALly4gOHDhyMhIUHeJyoqCkOGDMGGDRsqXY6iKADMO2G9Xq8pV65ckf8DgIMHD2LgwIGyrF27VvN/IYRsBQgPD0erVq0AAJ06dULLli3xzjvvoHfv3hBCIDU1FTqdDqmpqfDw8AAAlJaWwsPDQwYEPz8/+Pn5QQghf//zzz819R89ejQaNmyIvLw86HS619p2lhgQiByLAYGoGlQlIKhN9u+99x5at24NHx8fREREQAiBEydOYNWqVRBC4K+//oKHhwd69eqlefyFCxfkMtTlDRkyRO7gGzRoIJvp1ftMmDABDx48AGCemnry5Mma/6sqKipgMBiwadMmeVuTJk0QHh6uub96isHT01Pez9PTs9IWBEspKSnQ6XQQQsBgMAAA8vLyIITAiBEjXmsbAgwIRI7GgEBUDaoaEABzBz0hBLKyspCVlYVTp05BCIHx48dDCIGUlBSUlpaisLDwpctR76ueInj//fdt7vM6ASE7OxutWrWCEAKLFi3SLMPNzQ1RUVEQQqC4uBh6vR7FxcWyBUE1atQoGRAePXoEIQSePHki/79ixQq0bt0aaWlpAIAZM2bA399f/j8kJATt2rV7re3IgEDkWAwIRNXgTQJCdnY2hBDo1KmTpgDAwoUL0aZNGwgh0LNnz0qXk5eXh2bNmgEAbt++DSEEVq1aZbOuCRMm4IcffsC8efMwatQoTUCwvkJBrRdgbj3YsWMHlixZAnd3dwgh0L59e81PwHy6Y/LkybIVBAA+/PBDxMXF2bQixMTEoLCwEBs3bkRBQQHeeecdAEBRUREWLlz4WtsQYEAgcjQGBKJq8CYBoby8HEIIlJaWAgCuXr2Kli1bolevXjh69CgA806zso6GapP8zJkzsXnzZuh0OmRmZsLLywv79u3TrCsrKwtJSUmyqFcqCCFkh0e1HgkJCZqAYNlJMSsrC8B/pxjU5TRp0gR9+/aVpxjKyspk+BBCyBYDAHBzc0N+fr5ch8FgQGFhIW7dugWdTserGIichAGBqBq8SUAAzDs5IQTatWsHIQSuXLmC69evQwiBDh06QAiBrl272ixj7NixEEJg0KBBKC4uhr+/vxz7wGQyYc6cOXJdcXFxlRa1LiNHjoQQQrZa7Nq1S67LMiCorC9zVMc7UANCt27d5PgGBQUFcHd3BwAkJSXJfgvquuPj42WQOHXqFPr06fNa25EBgcixGBCIqsHbXOaoKAri4+NhMpk0t8fHxyM3N9fm/vHx8XBzcwMAjBgxQnZYtC6AeSc8ceLESotlWKmoqMDz58/l1RGq1wkIqjlz5uCnn36Cn5+f5vYlS5agc+fOePz4sTwFoZ6yUIt6KiU1NfWV2wxgQCByNAYEompQ0+MgOHqkxFety3rkxry8PLv3LSsrQ0VFhU3YqQ4MCESOxYBAVA04F0PN4/YmciwGBKJqwIBQ87i9iRyLAYGoGjAg1DxubyLHYkAgqgYMCDWP25vIsRgQiKoBA0LN4/YmciwGBKJqwIBQ87i9iRyLAYGoGjAg1DxubyLHYkAgqgYMCDWP25vIsRgQiKoBA0LN4/YmciwGBKJq8M8//3CHVYOKi4u5vYkcjAGBqBpkZWXBaDTazGNA1ePGjRsMCEQOxoBAVE1CQkLkRERUfUwmE4xGI27duuXsqhC5FAYEompSWloKo9GIdevWITMzs0YmLKpPSktLERcXB6PRiLVr1zq7OkQuhwGBqBqZTCZs2LABRqOxzpTvvvvO6XWoSrl06ZKzX2Yil8SAQEQa7dq1c3YViKgWYEAgIg0GBCICGBCIyAoDAhEBDAhEZIUBgYgABgQissKAQEQAAwIRWWFAICKAAYGIrDAgEBHAgEBEVhgQiAhgQCAiKwwIRAQwIBCRFQYEIgIYEIjICgMCEQEMCERkhQGBiAAGBCKywoBARAADAhFZYUAgIoABgYisMCAQEcCAQERWGBCICGBAICIrDAhEBDAgEJEVBgQiAhgQ6A399ttv6N+/P4sLFk9PT6fXgaV6ClFVMCDQG/Hx8XF2FaiasAXBNcXExDi7ClTHMCDQG2FAcF0MCK6JAYGqigGB3ggDgutiQHBNDAhUVQwI9EYYEFwXA4JrYkCgqmJAoDfCgOC6GBBcEwMCVRUDAr0RBgTXxYDgmhgQqKoYEOiNMCC4LgYE18SAQFXFgEBvhAHBdTEguCYGBKoqBgR6IwwIrosBwTUxIFBVMSDQG2FAcF0MCK6JAYGqigGB3ggDgutiQHBNDAhUVQwI9EYYEFwXA4JrYkCgqmJAoDfCgOC6GBBcEwMCVRUDAr0RBgTXxYDgmhgQqKoYEOiNMCC4LgYE18SAQFXFgEBvhAHBdTEguCYGBKoqBgSqkmHDhkEIIYvBYHB2lchBdDqd5rWdNm2as6tEDpCRkaF5XYUQKCoqcna1qA5gQKAqURRF80Vz+PBhZ1eJHGTHjh2a11ZRFGdXiRzE8nUdMGCAs6tDdQQDAlVZYGAghBDQ6/XOrgo5mLoTGTdunLOrQg6UnJwsX9uKigpnV4fqCAYEF1BeXo7MzEykpqbWWBFCYPv27TW2vvT0dBQUFDh7U9e4/Px8pKWl1dh23rRpE4QQNfpeyszMdNmdVklJCTIyMmp0e1ZW9Ho9evbs6fR6qK95eXm5s18eegUGhDpMURRs3rwZRqOxxkunTp2cst7g4GDk5+c7e9NXu9zcXAQFBTllG/v7+ztlvTt27HCZ0xoVFRUIDQ11ynasrPz888+YN2+e0+thWTZv3uwyr7krYkCooxRFQWhoKBYvXoySkhJnV6fGHD58GEaj0aVDwosXL2A0GnHixAlnV6XGFBUV4Y8//kBYWFid32GYTCYEBQUhMjLS2VWp1UpKSrB48WKEhobW+dfcVTEg1FFRUVEICQlxdjWc4tixYwgKCnJ2NapNUFAQTp486exqOEVwcDBu3brl7Gq8lY0bN2L58uXOrkadERISgqioKGdXg+xgQKijjEYjrl696uxqOI3RaERxcbGzq+FwBQUFMBqNzq6G05w7d67OP3+j0Yjc3FxnV6POuHLlSp1/zV0VA0IdZTQaUVpa6uxqOI2rfgmnp6fX6y/LkpKSOv/8jUYjTCaTs6tRZ5SWltb519xVMSDUUfX9A2U0GpGTk+PsajhcamoqX9s6/vzrev2dgdusdmJAqKPq+weKAcF11fXnX9fr7wzcZrUTA0IdVd8/UAwIrquuP/+6Xn9n4DarnRgQ6qj6/oFiQHBddf351/X6OwO3We3EgFBH1fcPFAOC66rrz7+u198ZuM1qJwaEOqq+f6AYEFxXXX/+db3+zsBtVjsxINRR9f0DxYDguur686/r9XcGbrPaiQGhjqrvHygGBNdV159/Xa+/M3Cb1U4MCHVUff9AMSC4rrr+/Ot6/Z2B26x2YkCoo+r7B4oBwXXV9edf1+vvDNxmtRMDQh1VFz5QI0eOxN9//w2TyYSnT58iKSkJQgg8ffoUT58+BWCeFlcIYbd4enqiWbNmdpfNgPByz58/d/hwv97e3gAgX0frojIYDEhISABgfj5CCGRlZSErK+u1Zu2rC+/tl3lV/U0mE54/f+7w9W7btg3z589HYGAgunXrJl8Xg8GAHj162Ny/S5cumDt3LgDYvC4mkwkpKSmYO3cuIiMjkZKSgufPnyM6Oho9evTA06dPKx3qPCAgoMqTL9X119xVMSDUUbXlAzVw4ECEhoba3P748WMEBARg/fr1yM7ORkBAAL799ltMnDgRzZs3x/Dhw+V9o6Oj5d9CCBQUFAAA2rZtiwULFthdLwPCywkhEBcX90aPs2YymRAdHQ0vLy9ER0cjLi4O3377baXL0Ov1ciKtNm3aoE+fPvjss88ghHit0FJb3ttv6lX1z8rKsrud35YQAqdPn0ZCQsIrg9jcuXPx7rvvyr+7du2KoUOHyr+zs7Mxbdo0CCHQrFkzTJs2DWFhYTJ0jBw5EsePH5f3f/LkCbKysgAwILgSBoQ6qrIPVFFREc6cOYNLly5pbk9LS8PJkyeRkpIib1MUBTExMfjnn39QUVEhby8pKcGZM2dw7949eVtsbCwKCwtx9uxZPHnyBACQkZGBzz//HDNmzJBfDqphw4bBx8cHvXv3BgDExcWhffv2AMxfZGVlZZr7e3l54eHDh9i7dy+6dOmCgoKCl36J1ueAkJCQgLKyMty8eRPZ2dlQFAVXrlzBlStX5H1iY2PlZF6lpaU4f/68zTTKSUlJOHXqFLKzswGYXyMhBGJjYzX3Ky8vx5QpU+Du7o4pU6YgNjYWH374IQ4cOCDL7du3AQA//fQT9uzZA71ejxEjRqBTp054+PAhevTogdmzZ+Phw4ev3AZ1fWfxugEhNTUVJ06c0LyPFUXB5cuXcebMGRmyMjIyUFRUhEePHuH8+fOV7vyFELhw4UKlpaSkBIB5OvG2bdtq1pmeng4hBE6dOiVv79+/P7p06YIBAwagQYMGCAkJQWBgIHr37g29Xo/MzEx533nz5uHIkSMAGBBcCQNCHWXvA6V+wX/55Zdo0aIF3nnnHQDA/PnzIYTAkCFDoNfr8fvvv0NRFLi7u6NVq1bo378/hBDIycmRyxgyZAiEEJg0aRIAyCOH7777DgaDAR9//DH27t0LIQRatGiBRYsW2dRHPcWwadMmu03SFy9eREZGBvR6Pby9ve0WLy8vzJ492+7zr68BoV27dujcuTOEEIiKioJer0e/fv3QuHFjtGvXDsB/LQiJiYkQQiAgIAB6vR7fffcdAODrr7+Gu7s7hg4dCiEETpw4ge7du0MIge7du9tdr+Uphq5du2LDhg3YsGEDfv31V8yYMUOuVwiBdu3aYcGCBWjatCl+/PFHCCHkz1ep6zuL1w0IBoMBAQEBEEJg165dAACdTocuXbrgyy+/lC0uAwYMQNOmTdGrVy+0b98eDRs2tLtcIQRmzJhRaXnx4gV27txp8zls3rw5PvroIwQGBsp13r9/HzNnzsSiRYtw+PBh5OTkwM/PDykpKejTpw8eP36M6dOny3VbBwTL5W/duvWttxk5BwNCHWXvA7Vq1Srs2LEDAJCSkiK/jIUQSE9PBwAkJiZiwIABuHz5Mnx8fORjp06diiNHjsDX1xd37twBAJSVlWmWYXn0p95e2SkGABg0aBB0Oh3Ky8sBAO+//7480lRlZGT8v/bO5rWJJ4zjf8fsS6xtLanpC75RqNCDYsVSdRVEKEYPPQmiHnoteNBtaqmheBC9iOALjUhVIkgjASlBaDUHoUFptSrY+kJDSW2yJLrf36HsNNvdNBX762Z25wNzyG528zwzeWa+O/PsLg4dOoSHDx/aljdv3nCBsIo9e/agtbUVANDd3U0HZ2C5XRYWFqhAaGlpQTQaNe3PZrOm6f5oNIqTJ0/S/aWora3F1q1bEY/HTUsMr169MtkgCAI0TUM6nUZ7ezsAoKmpqez5DVgfLNYrEIxZu1QqBUmSMDc3h/Pnz9PvEUKQy+Vw4sQJ7Nu3z7R9NbquQ5Kkf7a9t7cX8XgcABCJRFBdXW1bFEUxHcdnENwJFwiMYhdQ8/PzaG5upgl+hBBommbboVy8eBEHDx60bC+VfLb6HEZnVEogGMfev38fZ8+etT3v0aNHkc/nkUgkcPr0abS1teHOnTu0GLMaxUsdxf57WSDcunULALB3715LvUajUSoQ7Or969evEATB9tx2/5WxsTF67Pz8PL58+YJAIIBgMIhgMIjOzk4qEG7cuEFnpcbHxyFJEhobGyEIAhobG7lAgDUHoThG29vbTW1lCITLly/T79vV4dLSEgKBAJLJJKqqqrBjxw5atm/fbjp+9RV+cXn69CmA5YuD6enpNQtfYnA/XCAwil1AtbS0YHh4GADoVSRgTvzL5XKoqanB8+fP0dDQQI89deoUbt++jUAggA8fPtDtxpUCIQQfP36k28vNIOi6TpcYAKCurg4vX74EANTX12NhYcHy/ZqaGly4cAHpdBqyLGNiYmJN/70sEB4/fgwAOHPmjGmGRVEUmr8xPT2N3bt3Y3R01LR/cXHRNMg8e/aMLh+sNYAXLzEoioKZmRlajLbw+Xw4d+4cPn/+bJpBKPavHKwPFusVCEYuwezsLAghGB4epnk6wPJMjCEQrly5QrfbtdHMzAw6OzuRTCZNCcAAEIvFLAJhdT4KAFy6dIkKBE3T0NvbaypVVVWmz8VJilwguBMuEBjFLqD2798PWZZx7NgxCIIAQghGRkbQ3d0NURRx/PhxCIKABw8eQNd1EELg9/vR2toKQggKhQJev35N16Grq6uxc+dOACszAh0dHZBlGbIsAwB6enogyzKGhoYs9hQLhFwuhwMHDkAQBPj9fluf0uk0/Z1wOFzWfy4QVm4TbWpqQnNzM0RRBLCSgzA5OQlCCNra2rBt2zZs2bIFANDQ0ABZlqEoCgghdFmJEIK6ujrb3y0WCGvdxZDJZOD3+xEOhy0C4ciRIzT5rhSsDxZ/k4Nw+PBhEELQ39+PFy9egBCCrq4uOgOoKMq6BEIgEMDbt283TCAY+Hw+ejdMfX09XZ4y4tqACwR3wgUCo5QKqKmpKbx79w7AckdurP/ruo7R0VHLbWbfvn2jg0MxY2NjNLsdWOmUYrGY5Q4EOwzR8f79e6iqCkIIRFHE0NAQgsEgCCEYHx9HLBajoqC2tpZ2Rl1dXRBFEYQQ9PT02PrvVYFgx9TUlGnmxxAIBhMTEzQPxSCfzyMej6/r2QQdHR30P1DqOQiZTAaSJGHXrl3QNA2FQqHkktVasD5Y/I39xfkhwLK4MnIACoXCup+XYCwZJZNJCIJARbwsy5AkySIQZFmGz+czFVEUqUAw7mp49OgRcrkcbt68SZOeAdCLgj9//kAUxbKl3H+M9TZ3K1wgMMpmB9R6OvZSFK9Vrub379/0djw7dF1HJpOxbOcCoTTXrl0zLSuxBuuDhRP2Ly4uAlieqZudnbXs+/nzJ/386dMnZLNZyznm5uZMDz8yLi4A2N6eWrz/X2G9zd0KFwiMstkBZVzVVApcIJRmcnIS379/3yCLNh/WBwvW7XcCXmeVCRcIjOL1gOICwb2w7j/r9jsBr7PKhAsERvF6QHGB4F5Y9591+52A11llwgUCo3g9oLhAcC+s+8+6/U7A66wy4QKBUbweUFwguBfW/WfdfifgdVaZcIHAKF4PKC4Q3Avr/rNuvxPwOqtMuEBgFK8HFBcI7oV1/1m33wl4nVUmXCAwitcDigsE98K6/6zb7wS8zioTLhAYxesBxQWCe2Hdf9btdwJeZ5UJFwiMoqpq2WfauxlVVU1PfXMLP3788HRnmc1mmfdfVVXLI805pcnlcsy3uVvhAoFRVFVFIpFw2gzHUFUVmqY5bcaGs7S05OnOMhaLMe+/qqqWt5VySpNIJJhvc7fCBQKjpFIp9Pf3O22GI4yMjCAUCjltxv9GKBSyvMTHK/T19ZleMsUid+/eLfs2Us4KoVAIqVTKaTM4NnCBwCi6rmNwcBADAwO2L15xK/fu3XP98ooxixCJRJw2ZdP49esXrl69inA4vK63S1Yyuq6jr68P169fd9qUiiabzWJgYACDg4PMt7lb4QKBYXRdRyQSgaqqnimhUGhD3yJXqeTzeYRCIcfrezPLkydPXDNQGALe6Tqt9BKJRFzT5m7kPzJ3O25k0Wc7AAAAAElFTkSuQmCC;" vertex="1" parent="1">
          <mxGeometry x="91" y="110" width="674.65" height="650" as="geometry" />
        </mxCell>
      </root>
    </mxGraphModel>
  </diagram>
</mxfile>
